<svg xmlns="http://www.w3.org/2000/svg" width="250" height="200" viewBox="0 0 250 200"><ellipse cx="41.542" cy="8.412" rx="41.542" ry="8.412" transform="translate(58.666 183.176)" fill="#f2f2f2"/><rect width="221.519" height="129.801" transform="translate(16.066 23.377)" fill="#f2f2f2"/><rect width="20.935" height="27.973" transform="translate(216.65 125.206)" fill="#3f3d56"/><path d="M13.258,12.344c0,5.433-2.968,7.33-6.629,7.33S0,17.777,0,12.344,6.629,0,6.629,0,13.258,6.911,13.258,12.344Z" transform="translate(221.337 128.329)" fill="#7399b7"/><path d="M2.664,18.843,2.732,14.3,5.557,8.671,2.743,13.583l.031-2.045L4.721,7.469,2.781,11h0l.055-3.677,2.085-3.24L2.845,6.742,2.879,0,2.664,8.926l.018-.368L.561,5.026,2.647,9.264l-.2,4.106-.006-.109L0,9.545l2.436,4.1-.025.514,0,.008,0,.042-.5,10.419h.67l.08-5.381,2.431-4.091L2.664,18.843Z" transform="translate(225.06 128.329)" fill="#3f3d56"/><path d="M0,5.828A5.606,5.606,0,0,1,5.355,0a5.606,5.606,0,0,1,5.356,5.828,5.614,5.614,0,0,1-5.356,5.828A5.607,5.607,0,0,1,0,5.828Z" transform="translate(27.02 0)" fill="#3f3d56"/><ellipse cx="3.165" cy="3.444" rx="3.165" ry="3.444" transform="translate(0 30.728)" fill="#3f3d56"/><ellipse cx="3.165" cy="3.444" rx="3.165" ry="3.444" transform="translate(243.671 55.894)" fill="#3f3d56"/><rect width="161.636" height="1.589" transform="translate(46.13 49.868)" fill="#3f3d56"/><rect width="161.636" height="1.589" transform="translate(46.13 64.172)" fill="#3f3d56"/><rect width="161.636" height="1.589" transform="translate(46.13 78.477)" fill="#3f3d56"/><rect width="3.895" height="13.245" transform="translate(73.637 44.04)" fill="#7399b7"/><rect width="3.895" height="13.245" transform="translate(117.941 58.344)" fill="#7399b7"/><rect width="3.895" height="13.245" transform="translate(193.89 72.649)" fill="#7399b7"/><rect width="57.449" height="1.589" transform="translate(46.13 111.325)" fill="#3f3d56"/><rect width="28.724" height="1.589" transform="translate(46.13 117.152)" fill="#3f3d56"/><path d="M9.007,9.8H0V0H8.763V.53H.487V9.272H8.52V4.288h.487V9.8Z" transform="translate(45.886 122.715)" fill="#3f3d56"/><rect width="57.449" height="1.589" transform="translate(150.316 111.325)" fill="#3f3d56"/><rect width="18.5" height="1.589" transform="translate(150.316 117.152)" fill="#3f3d56"/><rect width="18.5" height="1.589" transform="translate(189.265 117.152)" fill="#3f3d56"/><path d="M0,9.8V0H9.007V9.8Z" transform="translate(150.073 122.715)" fill="#3f3d56"/><path d="M6.391,3.407H0V0H5.348L6.522.71l-.13,2.7Z" transform="translate(85.63 84.879)" fill="#575a89"/><path d="M0,.852l.261,5.11L4.174,5.11,3.522,0,0,.852Z" transform="translate(80.934 181.259)" fill="#ffb9b9"/><path d="M.328,1.1S.459,5.357.068,6.493,1.111,8.2,1.111,8.2H4.242l1.826.284V6.351S3.981,2.8,3.981.815.328,1.1.328,1.1Z" transform="translate(99.128 178.315)" fill="#ffb9b9"/><path d="M1.565.79S4.174-.551,5.087.261s4.3,7.768,3,8.194c0,0-.913,1.7-4.044.568S.913,6.61.913,6.61,0,5.758,0,5.474.391,2.635.391,2.635.681.5,1.123.644Z" transform="translate(80.021 185.579)" fill="#2f2e41"/><path d="M1.584.189s-.391-.426-.652,0-1.7,5.82-.391,6.1S3.8,7.57,4.062,7.286a3.989,3.989,0,0,0,.522-.994A10.138,10.138,0,0,1,7.323,8.138c.652.852,8.479,2.7,8.218,0S11.366,3.17,11.366,3.17L7.062.047s-1.7.142-2.087.994S1.844,1.751,1.584.189Z" transform="translate(98.134 184.051)" fill="#2f2e41"/><path d="M1.206,27.679S-.229,29.666.032,29.808s6,1.561,9.131.71,9.652-.71,10.044-1.7,5.218-13.343,5.218-13.343L22.858,6.1l-1.7-2.413L17.25,0,9.423,15.9Z" transform="translate(60.293 101.628)" fill="#575a89"/><path d="M1.206,27.679S-.229,29.666.032,29.808s6,1.561,9.131.71,9.652-.71,10.044-1.7,5.218-13.343,5.218-13.343L22.858,6.1l-1.7-2.413L17.25,0,9.423,15.9Z" transform="translate(60.293 101.628)" opacity="0.1"/><path d="M.812,2.981a42.732,42.732,0,0,0,0,16.891c1.826,9.794.13,11.923.522,12.349s.522.284.522.71.391,2.413,0,3.123S1.464,59.333,2.638,59.9s4.565,1.987,5.218,0,.13-16.324.391-17.033a11.556,11.556,0,0,0,.261-2.839c0-.426.783-5.252.913-6.529s.522-3.833.522-3.833-.261-10.078.522-13.059a13.285,13.285,0,0,1,1.044-3.265l6.261,17.743s-.522,1.845,0,2.413-.13.426.391,1.419S19.2,36.2,19.2,36.764s-.522.568-.261.994a12.309,12.309,0,0,1,.652,1.987l-.652,1.7a57.238,57.238,0,0,0,.913,5.678c.522,2.129.522,10.788,1.174,10.93s5.739,1.7,5.739-1.561-.391-17.459-.391-17.459a16.291,16.291,0,0,1-.783-2.7c0-.568-.13-.852.13-1.136a.952.952,0,0,0,.13-1.278c-.391-.426-.261-.994-.261-1.561a13.467,13.467,0,0,0-.261-2.271c-.13-.568-2.609-18.311-2.609-18.311s.522-2.129,0-2.271S22.2,8.233,22.2,7.665,23.508,0,21.943,0,.812,2.981.812,2.981Z" transform="translate(77.253 122.92)" fill="#2f2e41"/><path d="M6.208,0,4.382.994S-2.14,4.826.73,6.955,6.469,3.974,6.469,3.974L9.208,1.7Z" transform="translate(54.639 117.384)" fill="#ffb9b9"/><path d="M4.77.509S4.249,7.039,1.509,8.458.6,20.524.6,20.524L4.379,24.5l6.652-2.129.783-4.826.652-4.968L10.9,10.02S8.944,9.452,9.727,3.774,4.77.509,4.77.509Z" transform="translate(81.512 77.982)" fill="#ffb9b9"/><path d="M5.958,1.419s3,10.788,5.087,10.788,3.261-2.555,3.522-5.678A21.382,21.382,0,0,1,16.523,0l4.044,3.974s3.261,31.37,3,32.221S13.132,38.041,9.088,39.319,1,39.6,1,38.893c0-.632,2.069-6.106.495-10.1A17.8,17.8,0,0,1,.34,24.319a23.967,23.967,0,0,1-.252-5.441C.479,17.459,2.566,2.413,2.566,2.413Z" transform="translate(76.411 87.292)" fill="#7399b7"/><path d="M24.21.015s-2.339,1.362-3.382,1.929-7.435,2.271-7.565,3.123.913,12.775.391,14.053S7.914,31.752,7.914,31.752l-.261,2.413S-.956,45.379.088,46.657s4.957-3.974,4.957-3.974,8.739-15.188,9-15.756,5.609-11.072,6.391-11.356S23.045,3.363,23.306,2.8,24.592-.211,24.21.015Z" transform="translate(60.368 84.78)" fill="#575a89"/><path d="M14.351,0h-.783S10.7,11.923,9.916,13.485a18.29,18.29,0,0,0-1.044,4.542c-.13.426-.652.284-.783,1.278s-1.435,2.271-2.478,2.839A39.329,39.329,0,0,0,0,27.679c.13.142,1.565,5.11,2.478,5.11s4.565-4.826,4.957-4.826,2.087-1.7,2.348-1.845S16.7,12.633,16.438,9.368A63.214,63.214,0,0,0,14.351,0Z" transform="translate(59.931 89.705)" fill="#575a89"/><path d="M3.252,0,4.859,1.371s5.686,5.174,2.483,6.636-5.076-4.17-5.076-4.17L0,1.016Z" transform="translate(103.575 126.479)" fill="#ffb9b9"/><path d="M0,0A16.148,16.148,0,0,1,2.507,1.619c.783.71,6.783,2.555,6.783,3.123s-.652,9.368-.652,9.368l.913,15.614s1.3,17.6,1.565,18.027.652,2.7,0,2.7S7.2,46.474,7.334,44.486s1.044-6.529.13-7.665S2.246,16.665,2.246,15.53.42,3.039.551,2.755A14.3,14.3,0,0,0,0,0Z" transform="translate(91.079 84.963)" fill="#575a89"/><path d="M.261,0,2.217.142,7.044,21.576s.391,2.7.522,2.981S9.652,37.19,8.87,37.615s-3.391,1.987-3.522.994S3.913,32.079,2.609,30.8,0,7.523,0,7.523Z" transform="translate(98.152 89.563)" fill="#575a89"/><ellipse cx="5.348" cy="5.82" rx="5.348" ry="5.82" transform="translate(85.239 70.685)" fill="#ffb9b9"/><path d="M5.4,8.942a.9.9,0,0,1,1.1.4A5.618,5.618,0,0,1,9.41,5.355a4.845,4.845,0,0,1,4.678.151V4.915A4.728,4.728,0,0,0,9.571,0H8.485a8.152,8.152,0,0,0-6,2.7A9.663,9.663,0,0,0,0,9.234v1.648a8.387,8.387,0,0,0,4.166,7.384L9.05,15.452a5.715,5.715,0,0,1-2.615-4.22c-.413.2-.967-.121-1.255-.731A1.211,1.211,0,0,1,5.4,8.942Z" transform="translate(81.456 67.988)" fill="#2f2e41"/><path d="M0,2.931,2.657,6.2,8.467,0" transform="translate(47.61 122.943)" fill="none" stroke="#57b894" stroke-miterlimit="10" stroke-width="4"/></svg>