<svg xmlns="http://www.w3.org/2000/svg" xmlns:xlink="http://www.w3.org/1999/xlink" width="1291.508" height="433.99" viewBox="0 0 1291.508 433.99">
  <defs>
    <linearGradient id="linear-gradient" x1="0.5" y1="1" x2="0.5" gradientUnits="objectBoundingBox">
      <stop offset="0" stop-color="gray" stop-opacity="0.251"/>
      <stop offset="0.54" stop-color="gray" stop-opacity="0.122"/>
      <stop offset="1" stop-color="gray" stop-opacity="0.102"/>
    </linearGradient>
    <linearGradient id="linear-gradient-2" x1="0.5" y1="1" x2="0.5" y2="0" xlink:href="#linear-gradient"/>
    <linearGradient id="linear-gradient-3" x1="0.509" y1="0.547" x2="0.509" y2="0.507" xlink:href="#linear-gradient"/>
    <linearGradient id="linear-gradient-4" x1="0.496" y1="0.999" x2="0.496" y2="-0.002" xlink:href="#linear-gradient"/>
  </defs>
  <g id="Image" transform="translate(-0.543)">
    <g id="undraw_i_can_fly_7egl-2" transform="translate(792 134)">
      <path id="Path" d="M0,41.88C.818,28.013,13.725,17.142,29.37,17.142c.894,0,1.777.041,2.65.111C39.012,6.577,51.872.006,65.785,0s26.78,6.554,33.783,17.224c.737-.049,1.479-.082,2.23-.082,15.646,0,28.552,10.872,29.37,24.739" transform="translate(362.258 28.048)" fill="#f2f2f2"/>
      <path id="Path-2" data-name="Path" d="M0,41.88C.818,28.013,13.725,17.142,29.37,17.142c.894,0,1.777.041,2.65.111C39.012,6.577,51.872.006,65.785,0s26.78,6.554,33.783,17.224c.737-.049,1.479-.082,2.23-.082,15.646,0,28.552,10.872,29.37,24.739" transform="translate(368.383 26.04)" fill="none" stroke="#3f3d56" stroke-miterlimit="10" stroke-width="1"/>
      <path id="Path-3" data-name="Path" d="M0,138.614C2.645,93,45.155,56.735,97.209,56.735c2.958,0,5.88.137,8.771.366C129.121,21.768,171.685.019,217.734,0S306.37,21.693,329.549,57.008c2.439-.163,4.895-.272,7.381-.272,52.054,0,94.564,36.264,97.209,81.879" transform="translate(34.445 78.413)" fill="#f2f2f2"/>
      <path id="Path-4" data-name="Path" d="M0,138.614C2.645,93,45.155,56.735,97.209,56.735c2.958,0,5.88.137,8.771.366C129.121,21.768,171.685.019,217.734,0S306.37,21.693,329.549,57.008c2.439-.163,4.895-.272,7.381-.272,52.054,0,94.564,36.264,97.209,81.879" transform="translate(54.719 71.767)" fill="none" stroke="#3f3d56" stroke-miterlimit="10" stroke-width="1"/>
      <path id="Path-5" data-name="Path" d="M0,56.666C1.106,37.9,18.57,23.194,39.739,23.194c1.209,0,2.4.056,3.586.15C52.785,8.9,70.186.008,89.011,0s36.235,8.868,45.711,23.305c1-.066,2-.111,3.017-.111,21.169,0,38.633,14.71,39.74,33.473" transform="translate(0 2.932)" fill="#f2f2f2"/>
      <path id="Path-6" data-name="Path" d="M0,56.666C1.106,37.9,18.57,23.194,39.739,23.194c1.209,0,2.4.056,3.586.15C52.785,8.9,70.186.008,89.011,0s36.235,8.868,45.711,23.3c1-.066,2-.111,3.017-.111,21.169,0,38.633,14.71,39.74,33.473" transform="translate(8.288 0.215)" fill="none" stroke="#3f3d56" stroke-miterlimit="10" stroke-width="1"/>
      <path id="Path-7" data-name="Path" d="M3.395,0S10.184,14.634,0,18.077c0,0,14.549,5.6,17.944,4.3s5.82-4.3,5.82-5.165-3.395-1.291-3.395-1.291-6.3.43-1.455-13.773Z" transform="translate(195.939 101.432)" fill="#fbbebe"/>
      <ellipse id="Oval" cx="12.124" cy="10.76" rx="12.124" ry="10.76" transform="translate(194.969 87.658)" fill="#fbbebe"/>
      <ellipse id="Oval-2" data-name="Oval" cx="10.669" cy="13.343" rx="10.669" ry="13.343" transform="translate(188.422 82.709)" fill="#ff6584"/>
      <ellipse id="Oval-3" data-name="Oval" cx="10.669" cy="13.343" rx="10.669" ry="13.343" transform="translate(180.662 78.405)" fill="#ff6584"/>
      <ellipse id="Oval-4" data-name="Oval" cx="5.335" cy="6.671" rx="5.335" ry="6.671" transform="translate(175.327 75.392)" fill="#ff6584"/>
      <path id="Path-8" data-name="Path" d="M0,55.286s2.91-5.165,13.579-7.747S45.1,13.966,45.1,13.966s-.97-18.508,3.88-12.912.97,16.786.97,16.786L37.437,37.024a43.066,43.066,0,0,1-8.668,9.653C21.033,53.068,7.209,64.325,5.82,64.325,3.88,64.325,0,55.286,0,55.286Z" transform="translate(219.217 61.64)" fill="#fbbebe"/>
      <path id="Path-9" data-name="Path" d="M0,0S3.395,36.585,2.425,40.029s-3.88,10.33.97,30.56-.97,18.938-.97,18.938l15.519,6.026s-5.335-23.242-4.365-29.7.485-19.8,3.395-28.838S20.369,2.582,20.369,2.582Z" transform="translate(202.243 190.528)" fill="#fbbebe"/>
      <path id="Path-10" data-name="Path" d="M0,0S3.395,36.585,2.425,40.029s-3.88,10.33.97,30.56-.97,18.938-.97,18.938l15.519,6.026s-5.335-23.242-4.365-29.7.485-19.8,3.395-28.838S20.369,2.582,20.369,2.582Z" transform="translate(202.243 190.528)" opacity="0.1"/>
      <path id="Path-11" data-name="Path" d="M17.854,5.865c-1.2.741-4.291,1.494-10.065-3.952,0,0-3.395-4.3-6.3,0s-.97,4.735.97,6.887C4.326,10.877,19.3,24.987,25.576,24.414a3.322,3.322,0,0,0,.641-.12c5.82-1.722-2.425-7.317-2.425-7.317S18.387,9.6,18.356,6.112a.283.283,0,0,0-.166-.259A.359.359,0,0,0,17.854,5.865Z" transform="translate(201.729 275.559)" fill="var(--fillColorSvg,#3f3d56)"/>
      <path id="Path-12" data-name="Path" d="M67.166,0S58.922,16.786,55.527,25.395c-1.782,4.519-7.174,5.954-11.893,6.3a44.525,44.525,0,0,0-16.619,4.445c-6.788,3.381-16.05,7.219-21.924,6.474-10.184-1.291-1.94,12.912-1.94,12.912s15.034-8.178,29.1-9.039,29.1-2.152,35.887-9.9S91.414,4.3,91.414,4.3Z" transform="translate(123.438 186.224)" fill="#fbbebe"/>
      <path id="Path-13" data-name="Path" d="M15.875,15.645s-4.85-3.013-.97-6.026a21.472,21.472,0,0,0,5.335-5.6s-6.79-6.456-9.214-3.013S-2.069,19.949.356,24.684s4.85,6.026,7.759.861,10.248-9.231,10.248-9.231Z" transform="translate(111.198 223.95)" fill="var(--fillColorSvg,#3f3d56)"/>
      <path id="Path-14" data-name="Path" d="M27.887,3.034S26.275,5.9,11.293,3.141a9.628,9.628,0,0,0-10.14,4.2c-1.879,3.336-2.122,8.178,4.425,14.2,0,0,11.639,11.621,5.82,16.356s27.643-3.013,27.643-3.013-4.365-2.582-.485-10.33c3.048-6.087,2.8-9.517.441-12.169A12.629,12.629,0,0,1,36.166,6.77C35.5,3.888,33.868.278,29.827.022c0,0-4.248-.221-4.549.75S28.857,2.6,27.887,3.034Z" transform="translate(189.39 116.044)" fill="#7399b7"/>
      <path id="Path-15" data-name="Path" d="M60.554,8.164c-.1-.607-.223-1.21-.309-1.819C59.952,4.268,58.839-.767,54.988.1,50.157,1.186,44.823,11.946,44.823,11.946S40.458,24,34.153,27.011,10.39,45.519,10.39,45.519s-14.549,3.443-9.214,6.887S13.3,50.253,13.3,50.253L30.452,41.12A47.245,47.245,0,0,0,45.581,28.495c3.573-4.593,8.048-9.9,10.884-11.656a8.5,8.5,0,0,0,3.665-4.252,8.816,8.816,0,0,0,.424-4.423Z" transform="translate(138.992 120.045)" fill="#fbbebe"/>
      <path id="Path-16" data-name="Path" d="M55.841,4.4S33.533,1.818,20.924,15.161-.9,24.63.07,26.783,47.6,54.329,74.755,51.316c16.534-1.834,25.339-3.509,29.7-4.539a8.58,8.58,0,0,0,4.675-2.783,8.312,8.312,0,0,1,2.364-1.905,3.738,3.738,0,0,0,1.819-2.416,3.4,3.4,0,0,0-.689-2.84C104.929,26.957,84.048.795,78.15.1,70.875-.764,55.841,4.4,55.841,4.4Z" transform="translate(147.857 148.681)" fill="#7399b7"/>
      <ellipse id="Oval-5" data-name="Oval" cx="7.759" cy="4.95" rx="7.759" ry="4.95" transform="translate(199.576 81.848)" fill="#ff6584"/>
      <path id="Path-17" data-name="Path" d="M17.5,21.938a44.506,44.506,0,0,1,2.022-6.694c.877-2.127,1.985-3.942,3.221-3.942,3,0-10.487-11.3-10.487-11.3S11.405,1.4,10,3.277A47.106,47.106,0,0,1,6.649,7.333a24.168,24.168,0,0,1-5.633,4.634C-4.976,15.29,17.5,21.938,17.5,21.938Z" transform="translate(344.698 20.754)" fill="#a0616a"/>
      <path id="Path-18" data-name="Path" d="M3.806,0S33.843,16.843,24.588,19.611,0,2.591,0,2.591Z" transform="translate(398.056 86.76)" fill="#a0616a"/>
      <path id="Path-19" data-name="Path" d="M15.41.447S29.8,9.758,34,16.84,60.063,39.661,60.063,39.661,55.55,47.574,53.368,47.1,6.2,16.92,1.473,14.515,3.953-2.744,15.41.447Z" transform="translate(346.163 48.054)" fill="#7399b7"/>
      <path id="Path-20" data-name="Path" d="M15.41.447S29.8,9.758,34,16.84,60.063,39.661,60.063,39.661,55.55,47.574,53.368,47.1,6.2,16.92,1.473,14.515,3.953-2.744,15.41.447Z" transform="translate(346.163 48.054)" opacity="0.1"/>
      <path id="Path-21" data-name="Path" d="M3,0S36.7,9.972,28.464,14.625,0,3.324,0,3.324Z" transform="translate(401.144 65.295)" fill="#a0616a"/>
      <path id="Path-22" data-name="Path" d="M11.236,1.737S25.468-3.582,23.97,4.4s-8.24,15.29-8.24,19.279S3,36.306.749,34.311,4.494,24.34,3,19.686,0,4.4,0,4.4Z" transform="translate(371.182 199.841)" fill="#55536e"/>
      <path id="Path-23" data-name="Path" d="M11.236,1.737S25.468-3.582,23.97,4.4s-8.24,15.29-8.24,19.279S3,36.306.749,34.311,4.494,24.34,3,19.686,0,4.4,0,4.4Z" transform="translate(371.182 199.841)" opacity="0.1"/>
      <path id="Path-24" data-name="Path" d="M11.236,1.737S25.468-3.582,23.97,4.4s-8.24,15.29-8.24,19.279S3,36.306.749,34.311,4.494,24.34,3,19.686,0,4.4,0,4.4Z" transform="translate(366.687 205.824)" fill="#55536e"/>
      <path id="Path-25" data-name="Path" d="M.108,0S44.3,37.228,42.8,40.552,31.568,51.189,31.568,51.189-2.14,11.966.108,0Z" transform="translate(344.857 159.031)" fill="#3f3d56"/>
      <path id="Path-26" data-name="Path" d="M.108,0S44.3,37.228,42.8,40.552,31.568,51.189,31.568,51.189-2.14,11.966.108,0Z" transform="translate(344.857 159.031)" opacity="0.1"/>
      <path id="Path-27" data-name="Path" d="M30.864,1.477S42.1,11.449,39.1,30.728s2.247,37.893,8.24,43.876,30.711,40.552,30.711,40.552-10.487,15.29-18.726,7.313S26.37,81.917,26.37,81.917,3.9,42.695,1.651,32.058s-3-27.257,3-30.581S30.864,1.477,30.864,1.477Z" transform="translate(303.614 90.41)" fill="#3f3d56"/>
      <path id="Path-28" data-name="Path" d="M0,7.373c8.749,1.609,7.88,1.921,13.258,3.6.03-.08.06-.146.09-.213.824-1.742,1.341.545,2.532.545C18.876,11.3,5.393,0,5.393,0S4.884.838,4.007,2.094c-.262.366-.547.765-.861,1.183C2.884,3.63,2.6,4,2.3,4.388Z" transform="translate(353.055 18.76)" opacity="0.1"/>
      <ellipse id="Oval-6" data-name="Oval" cx="14.232" cy="12.631" rx="14.232" ry="12.631" transform="translate(354.703 10.117)" fill="#a0616a"/>
      <path id="Path-29" data-name="Path" d="M37.452,0S59.175,1.994,63.669,10.637,35.954,61.161,33.707,61.826,0,65.815,0,65.815s1.5-42.547,30.711-58.5C30.711,7.313,37.452,4.654,37.452,0Z" transform="translate(305.265 32.056)" fill="#7399b7"/>
      <path id="Path-30" data-name="Path" d="M12.217.02S28.7,6,34.688,11.986s31.46,16.62,31.46,16.62-2.247,8.642-4.494,8.642S7.722,17.97,2.479,16.64.232-.645,12.217.02Z" transform="translate(342.486 36.689)" fill="#7399b7"/>
      <path id="Path-31" data-name="Path" d="M4.494,18.375S8.24,15.051.749,12.392c0,0,7.49-2.659,8.989-6.648s6.741-10.637,11.236,0,12.734,24.6-14.232,24.6c0,0-6.741,1.33-6.741-3.989a9.643,9.643,0,0,1,4.494-7.978Z" transform="translate(363.317 6.036)" fill="#3f3d56"/>
    </g>
    <g id="Group_2" data-name="Group 2" transform="translate(5 51)">
      <path id="Path-32" data-name="Path" d="M0,56.666C1.106,37.9,18.57,23.194,39.739,23.194c1.209,0,2.4.056,3.586.15C52.785,8.9,70.186.008,89.011,0s36.235,8.868,45.711,23.305c1-.066,2-.111,3.017-.111,21.169,0,38.633,14.71,39.74,33.473" transform="translate(0 2.717)" fill="#f2f2f2"/>
      <path id="Path-33" data-name="Path" d="M0,56.666C1.106,37.9,18.57,23.194,39.739,23.194c1.209,0,2.4.056,3.586.15C52.785,8.9,70.186.008,89.011,0s36.235,8.868,45.711,23.3c1-.066,2-.111,3.017-.111,21.169,0,38.633,14.71,39.74,33.473" transform="translate(8.288 0)" fill="none" stroke="#3f3d56" stroke-miterlimit="10" stroke-width="1"/>
    </g>
    <g id="Group_2-2" data-name="Group 2" transform="translate(124 165)">
      <path id="Path-34" data-name="Path" d="M0,56.666C1.106,37.9,18.57,23.194,39.739,23.194c1.209,0,2.4.056,3.586.15C52.785,8.9,70.186.008,89.011,0s36.235,8.868,45.711,23.305c1-.066,2-.111,3.017-.111,21.169,0,38.633,14.71,39.74,33.473" transform="translate(0 2.717)" fill="#f2f2f2"/>
      <path id="Path-35" data-name="Path" d="M0,56.666C1.106,37.9,18.57,23.194,39.739,23.194c1.209,0,2.4.056,3.586.15C52.785,8.9,70.186.008,89.011,0s36.235,8.868,45.711,23.3c1-.066,2-.111,3.017-.111,21.169,0,38.633,14.71,39.74,33.473" transform="translate(8.288 0)" fill="none" stroke="#3f3d56" stroke-miterlimit="10" stroke-width="1"/>
    </g>
    <g id="Group_2-3" data-name="Group 2" transform="translate(394 51)">
      <path id="Path-36" data-name="Path" d="M0,56.666C1.106,37.9,18.57,23.194,39.739,23.194c1.209,0,2.4.056,3.586.15C52.785,8.9,70.186.008,89.011,0s36.235,8.868,45.711,23.305c1-.066,2-.111,3.017-.111,21.169,0,38.633,14.71,39.74,33.473" transform="translate(0 2.717)" fill="#f2f2f2"/>
      <path id="Path-37" data-name="Path" d="M0,56.666C1.106,37.9,18.57,23.194,39.739,23.194c1.209,0,2.4.056,3.586.15C52.785,8.9,70.186.008,89.011,0s36.235,8.868,45.711,23.3c1-.066,2-.111,3.017-.111,21.169,0,38.633,14.71,39.74,33.473" transform="translate(8.288 0)" fill="none" stroke="#3f3d56" stroke-miterlimit="10" stroke-width="1"/>
    </g>
    <g id="undraw_air_support_wy1q">
      <g id="Group" transform="translate(0 264.236)" opacity="0.5">
        <path id="Path-38" data-name="Path" d="M482.206,73.828c-2.726,0-65.441,23.766-138.15-38.817C304.57,1.03,265.894-2.589,238.79,1.2a86.223,86.223,0,0,0-43.914,19.685c-9.689,8.292-33.139,19.591-88.083,16.5C22.268,32.64,0,85.319,0,85.319H499.434S484.915,73.828,482.206,73.828Z" transform="translate(0.543 0.193)" fill="url(#linear-gradient)"/>
      </g>
      <path id="Path-39" data-name="Path" d="M0,85.314s22.268-52.68,106.793-47.927c54.943,3.1,78.4-8.213,88.06-16.5A85.892,85.892,0,0,1,238.722,1.2c27.1-3.791,65.786-.173,105.266,33.808C416.7,97.594,479.412,73.828,482.138,73.828s17.268,11.486,17.268,11.486Z" transform="translate(0.566 265.617)" fill="#f2f2f2"/>
      <path id="Path-40" data-name="Path" d="M0,85.314s22.268-52.68,106.793-47.927c54.943,3.1,78.4-8.213,88.06-16.5A85.892,85.892,0,0,1,238.722,1.2c27.1-3.791,65.786-.173,105.266,33.808C416.7,97.594,479.412,73.828,482.138,73.828s17.268,11.486,17.268,11.486Z" transform="translate(0.566 265.617)" opacity="0.02"/>
      <g id="Group-2" data-name="Group" transform="translate(67.308)" opacity="0.5">
        <ellipse id="Oval-7" data-name="Oval" cx="45.899" cy="40.005" rx="45.899" ry="40.005" transform="translate(0.062 0)" fill="url(#linear-gradient-2)"/>
      </g>
      <ellipse id="Oval-8" data-name="Oval" cx="40.899" cy="35.647" rx="40.899" ry="35.647" transform="translate(72.37 4.358)" fill="#fccc63"/>
      <rect id="Rectangle" width="35.577" height="23.037" transform="translate(91.618 291.167)" fill="#7399b7"/>
      <path id="Path-41" data-name="Path" d="M.456,17.725,20.337.4a1.715,1.715,0,0,1,2.195,0l19.723,17.19a1.227,1.227,0,0,1,.338,1.471,1.566,1.566,0,0,1-1.43.836L1.57,20.032a1.572,1.572,0,0,1-1.448-.827,1.227,1.227,0,0,1,.334-1.481Z" transform="translate(88.063 272.506)" fill="#7399b7"/>
      <path id="Path-42" data-name="Path" d="M.456,17.725,20.337.4a1.715,1.715,0,0,1,2.195,0l19.723,17.19a1.227,1.227,0,0,1,.338,1.471,1.566,1.566,0,0,1-1.43.836L1.57,20.032a1.572,1.572,0,0,1-1.448-.827,1.227,1.227,0,0,1,.334-1.481Z" transform="translate(88.063 272.506)" opacity="0.05"/>
      <path id="Path-43" data-name="Path" d="M4.016,0h.713A3.785,3.785,0,0,1,8.744,3.5v6.9H0V3.5A3.785,3.785,0,0,1,4.016,0Z" transform="translate(104.932 303.812)" fill="#fff"/>
      <ellipse id="Oval-9" data-name="Oval" cx="2.189" cy="1.908" rx="2.189" ry="1.908" transform="translate(107.313 275.229)" fill="#fff"/>
      <rect id="Rectangle-2" data-name="Rectangle" width="8.348" height="5.541" transform="translate(94.4 294.11)" fill="#fff"/>
      <rect id="Rectangle-3" data-name="Rectangle" width="0.798" height="5.541" transform="translate(98.173 294.11)" fill="#7399b7"/>
      <rect id="Rectangle-4" data-name="Rectangle" width="8.348" height="5.541" transform="translate(116.657 294.11)" fill="#fff"/>
      <rect id="Rectangle-5" data-name="Rectangle" width="0.798" height="5.541" transform="translate(120.436 294.11)" fill="#7399b7"/>
      <g id="Group-3" data-name="Group" transform="translate(255.656 266.208)" opacity="0.2">
        <path id="Path-44" data-name="Path" d="M.3.3Z" transform="translate(0.549 0.376)" fill="url(#linear-gradient-3)"/>
      </g>
      <g id="Group-4" data-name="Group" transform="translate(255.656 266.208)" opacity="0.2">
        <path id="Shape" d="M0,14.48l.221-.852L1.352,9.112V5.819a.939.939,0,0,1,0-.123C-.311,3.743.7.687.787.42L.866.45A1.528,1.528,0,0,1,.945.1s.491-.271.758.079a.363.363,0,0,1,0,.532h.033a.912.912,0,0,0-.152.336l.05-.084H1.77a1.715,1.715,0,0,0-.22,1.05,1.537,1.537,0,0,1,.193-.2A1.863,1.863,0,0,1,2.874,1.4h.514l.1.03a1.857,1.857,0,0,0,.334.109h.045a.632.632,0,0,0,.368-.089h.034l.04-.03a.205.205,0,0,1,0,.094.28.28,0,0,1-.113.193l-.062.034a.34.34,0,0,1,.239.249.3.3,0,0,1-.127.305.414.414,0,0,1-.367.057l.068.025H4.18a1,1,0,0,0,.232,0h.1v.04l-.034.024H4.253a.506.506,0,0,1-.147-.03l.09.035H4.9a.426.426,0,0,0-.148.068.443.443,0,0,1-.09.045H4.4a.718.718,0,0,0-.254.068.456.456,0,0,0-.108.084l.04.059.029.054a.165.165,0,0,1,.05.109,1.065,1.065,0,0,1,.085.414V3.62a1.109,1.109,0,0,1-.062.143l-.033.064L4.1,3.9l-.045.059a1.274,1.274,0,0,1-.113.118,1.384,1.384,0,0,1-.367.242q0,.027,0,.054t0,.059v.448l.085.044C4.882,4.429,6.708.977,6.708.977h.046c-.175-.128,0-.621,0-.621A.923.923,0,0,1,7.1.258h.215V.287c.266.35,0,.543,0,.543a3.027,3.027,0,0,1,0,.4C7.336,3.749,4.253,5.691,4.1,5.789a4.529,4.529,0,0,1,0,3.279,4.649,4.649,0,0,1,1.731,4.762v.054h.051v.035l.028.059a.482.482,0,0,0,.074.094l.1.094.04.034c.158.128.317.256.2.306h-1.7v-.641H4.593l.028-.059a2.4,2.4,0,0,0-.033-1.75A3.591,3.591,0,0,0,2.63,10.31l-.028.084-1.222,3.5v.044a.606.606,0,0,0,0,.1l.034.074c.074.138.2.3.26.414v.05a.132.132,0,0,1,0,.059.069.069,0,0,1-.05.059H1.555l.034.02Z" transform="translate(0.113 0.196)" fill="url(#linear-gradient-4)"/>
      </g>
      <path id="Path-45" data-name="Path" d="M.925.8S1.219.58.925.2.088.112.088.112-.11.669.088.8.925.8.925.8Z" transform="translate(262.174 266.821)" fill="#ca7070"/>
      <path id="_39458adb-bcd5-4769-9abe-182f7ae0ca71" data-name="39458adb-bcd5-4769-9abe-182f7ae0ca71" d="M0,0H1.357a.363.363,0,0,0,.13.306c.181.182.566.4.379.493H0Z" transform="translate(260.057 281.993)" fill="#00695c"/>
      <path id="Path-46" data-name="Path" d="M.131.306A.363.363,0,0,1,0,0H.1a.363.363,0,0,0,.13.306C.409.488.793.71.607.8H.51C.68.71.312.488.131.306Z" transform="translate(261.311 281.993)" fill="#fff" opacity="0.2"/>
      <path id="_24b3a5d5-99f8-4317-aac1-7589e0408752" data-name="24b3a5d5-99f8-4317-aac1-7589e0408752" d="M.226,0l1.29.2a.5.5,0,0,0,.057.389c.141.251.452.577.266.646L0,.971Z" transform="translate(254.989 281.751)" fill="#00695c"/>
      <path id="Path-47" data-name="Path" d="M.43,0s-1.454,4,.984,6.212l.707-.493S.679,1.359,1.488.334C.062-.056.43,0,.43,0Z" transform="translate(255.407 267.092)" fill="#00695c"/>
      <path id="Path-48" data-name="Path" d="M.925.8S1.219.58.925.2.088.112.088.112-.11.669.088.8.925.8.925.8Z" transform="translate(255.919 266.648)" fill="#ca7070"/>
      <path id="Path-49" data-name="Path" d="M1.233.557A.5.5,0,0,1,1.176.168L0,0H0L1.29.187a.5.5,0,0,0,.057.389c.141.251.452.577.266.646H1.533C1.657,1.1,1.369.8,1.233.557Z" transform="translate(255.215 281.761)" fill="#fff" opacity="0.2"/>
      <rect id="Rectangle-6" data-name="Rectangle" width="1.38" height="1.785" rx="0.69" transform="translate(258.744 272.602) rotate(180)" fill="#ca7070"/>
      <path id="Path-50" data-name="Path" d="M.881,5.369S-.544,1.06.231,0H.378c-.809,1.025.633,5.388.633,5.388L.3,5.881.242,5.822Z" transform="translate(256.545 267.707)" fill="#fff" opacity="0.2"/>
      <ellipse id="Oval-10" data-name="Oval" cx="1.527" cy="1.331" rx="1.527" ry="1.331" transform="translate(256.499 268.781)" fill="#ca7070"/>
      <path id="Path-51" data-name="Path" d="M.611,3.224V2.642a.52.52,0,0,0,0-.128,1.285,1.285,0,0,0,.8-1.461A1.48,1.48,0,0,0,0,0H.085A1.5,1.5,0,0,1,1.57,1.017a1.28,1.28,0,0,1-.784,1.5.52.52,0,0,1,0,.128v.582a.65.65,0,0,1-.69.6H.011A.635.635,0,0,0,.611,3.224Z" transform="translate(257.958 268.776)" fill="#fff" opacity="0.2"/>
      <path id="Path-52" data-name="Path" d="M0,4.984s2.947.291,3.054,0a4.991,4.991,0,0,0,0-3.653A1.439,1.439,0,0,0,1.527,0h0A1.439,1.439,0,0,0,0,1.331Z" transform="translate(256.476 271.764)" fill="#00695c"/>
      <path id="Path-53" data-name="Path" d="M1.329,0,0,5.324H1.329L2.709,1.38A4.062,4.062,0,0,1,4.876,3.313a2.488,2.488,0,0,1,0,2.016H6.307V5.27A5.119,5.119,0,0,0,4.372,0h0" transform="translate(255.147 276.748)" fill="#263238"/>
      <path id="Path-54" data-name="Path" d="M1.431,4.979a4.991,4.991,0,0,0,0-3.653A1.425,1.425,0,0,0,0,0H.1A1.439,1.439,0,0,1,1.623,1.331a4.991,4.991,0,0,1,0,3.653c-.04.1-.441.133-.945.128C1.114,5.1,1.431,5.068,1.431,4.979Z" transform="translate(257.902 271.769)" fill="#fff" opacity="0.2"/>
      <path id="Path-55" data-name="Path" d="M1.254,5.452S5.213,3.047,4.8,0H3.918S1.8,3.993.445,4.383,1.254,5.452,1.254,5.452Z" transform="translate(258.3 267.623)" fill="#00695c"/>
      <g id="Group-5" data-name="Group" transform="translate(256.222 276.56)" opacity="0.2">
        <path id="Path-56" data-name="Path" d="M1.55.064.2,3.944H0L1.38,0Z" transform="translate(0.057 1.587)" fill="#fff"/>
        <path id="Path-57" data-name="Path" d="M0,0H.2A5.119,5.119,0,0,1,2.132,5.27v.059h-.2V5.27A5.119,5.119,0,0,0,0,0Z" transform="translate(3.111 0.207)" fill="#fff"/>
      </g>
      <path id="Path-58" data-name="Path" d="M3.5,0h.147C4.038,3.052.1,5.452.1,5.452L0,5.418C.441,5.137,3.863,2.854,3.5,0Z" transform="translate(259.457 267.652)" fill="#fff" opacity="0.2"/>
      <path id="Path-59" data-name="Path" d="M2.934,1.328a1.991,1.991,0,0,0-.175.537,1.441,1.441,0,0,1-.7.937,1.729,1.729,0,0,1-.684.163A1.441,1.441,0,0,1,.361,2.7a1.049,1.049,0,0,1-.311-.542A1.692,1.692,0,0,1,.615.46,2.085,2.085,0,0,1,2.566.1,2.051,2.051,0,0,0,2.94.218.675.675,0,0,0,3.505.061a.265.265,0,0,1-.051.265.359.359,0,0,1-.277.119,1.079,1.079,0,0,0,.73.035.655.655,0,0,1-.781.271,2.354,2.354,0,0,0,.882.158c-.062,0-.187.1-.266.123a1.946,1.946,0,0,1-.294,0A.573.573,0,0,0,2.934,1.328Z" transform="translate(256.308 268.188)" fill="#263238"/>
      <g id="Group-6" data-name="Group" transform="translate(257.353 267.687)" opacity="0.2">
        <path id="Path-60" data-name="Path" d="M.158.4A1.059,1.059,0,0,0,.52.477,1.072,1.072,0,0,1,.045.4.37.37,0,0,0,.3.3.278.278,0,0,0,.39.073L.469.014A.265.265,0,0,1,.423.273.355.355,0,0,1,.158.4Z" transform="translate(1.934 0.553)" fill="#fff"/>
        <path id="Path-61" data-name="Path" d="M.939.355A2.051,2.051,0,0,1,.566.237,1.914,1.914,0,0,0,0,.133a1.922,1.922,0,0,1,.684.1,2.051,2.051,0,0,0,.373.118h.051A.648.648,0,0,1,.939.355Z" transform="translate(0.848 0.365)" fill="#fff"/>
        <path id="Path-62" data-name="Path" d="M.617.386C.7.386.82.263.882.263A2.354,2.354,0,0,1,0,.1.639.639,0,0,0,.2.14,2.365,2.365,0,0,0,.984.258C.922.258.8.361.718.381a.752.752,0,0,1-.2,0Z" transform="translate(1.929 1.147)" fill="#fff"/>
        <path id="Path-63" data-name="Path" d="M0,1.913A1.729,1.729,0,0,0,.684,1.75a1.441,1.441,0,0,0,.7-.937A1.991,1.991,0,0,1,1.561.276.574.574,0,0,1,2.042,0h.1a.574.574,0,0,0-.481.276,1.991,1.991,0,0,0-.175.537,1.441,1.441,0,0,1-.7.937A1.729,1.729,0,0,1,.1,1.913H0Z" transform="translate(0.226 1.553)" fill="#fff"/>
        <path id="Path-64" data-name="Path" d="M0,.4A.635.635,0,0,0,.5.12L.617.09A.642.642,0,0,1,0,.4Z" transform="translate(2.212 0.891)" fill="#fff"/>
      </g>
      <path id="Path-65" data-name="Path" d="M.469.8S.764.584.469.2A.482.482,0,0,0,.1,0,.507.507,0,0,1,.566.2c.294.385,0,.6,0,.6A3.048,3.048,0,0,1,0,.856,3.326,3.326,0,0,0,.469.8Z" transform="translate(262.534 266.816)" fill="#fff" opacity="0.2"/>
      <path id="Path-66" data-name="Path" d="M.43,0s-1.454,4,.984,6.212l.707-.493S.679,1.359,1.488.334C.062-.056.43,0,.43,0Z" transform="translate(269.315 262.828)" fill="#ff5252"/>
      <path id="Path-67" data-name="Path" d="M.925.8S1.219.58.925.2.088.112.088.112-.11.669.088.8.925.8.925.8Z" transform="translate(269.827 262.389)" fill="#f6b9ad"/>
      <rect id="Rectangle-7" data-name="Rectangle" width="1.38" height="1.785" rx="0.69" transform="translate(272.653 268.342) rotate(180)" fill="#f6b9ad"/>
      <path id="Path-68" data-name="Path" d="M.881,5.369S-.544,1.06.231,0H.378c-.809,1.025.633,5.388.633,5.388L.3,5.881.242,5.822Z" transform="translate(270.454 263.462)" fill="#fff" opacity="0.2"/>
      <ellipse id="Oval-11" data-name="Oval" cx="1.527" cy="1.331" rx="1.527" ry="1.331" transform="translate(270.407 264.517)" fill="#f6b9ad"/>
      <path id="Path-69" data-name="Path" d="M.611,3.219V2.642a.52.52,0,0,0,0-.128,1.285,1.285,0,0,0,.8-1.461A1.48,1.48,0,0,0,0,0H.085A1.5,1.5,0,0,1,1.57,1.017a1.28,1.28,0,0,1-.784,1.5.52.52,0,0,1,0,.128v.582a.65.65,0,0,1-.69.6H.011A.634.634,0,0,0,.611,3.219Z" transform="translate(271.867 264.517)" fill="#fff" opacity="0.2"/>
      <path id="Path-70" data-name="Path" d="M0,5s2.947.291,3.054,0c.351-.937-.566-1.972-.119-2.465a1.087,1.087,0,0,0,.119-1.2A1.251,1.251,0,0,0,2.607.39,1.648,1.648,0,0,0,1.527,0h0A1.439,1.439,0,0,0,0,1.331Z" transform="translate(270.385 267.485)" fill="#ff5252"/>
      <path id="Path-71" data-name="Path" d="M1.5,2.534a1.087,1.087,0,0,0,.119-1.2A1.439,1.439,0,0,0,.1,0H0A1.425,1.425,0,0,1,1.431,1.326a1.087,1.087,0,0,1-.119,1.2c-.475.493.469,1.509.119,2.465-.034.089-.339.123-.741.128.5,0,.9-.025.939-.128C1.974,4.042,1.029,3.027,1.5,2.534Z" transform="translate(271.821 267.504)" fill="#fff" opacity="0.2"/>
      <path id="Path-72" data-name="Path" d="M2.805,0h0A6.832,6.832,0,0,1,4.05,5.27v.059H3.133a3.755,3.755,0,0,0,0-2.016A3.166,3.166,0,0,0,1.742,1.38L.854,5.324H0L.854,0Z" transform="translate(270.006 272.4)" fill="#f6b9ad"/>
      <path id="Path-73" data-name="Path" d="M.831.9a.416.416,0,0,0,.2-.577C.882-.128.266.025.266.025S-.113.518.034.681.831.9.831.9Z" transform="translate(277.166 263.841)" fill="#f6b9ad"/>
      <path id="Path-74" data-name="Path" d="M.949,4.535S5.525,3.244,6.176.227L5.327,0S1.933,3.278.531,3.3.949,4.535.949,4.535Z" transform="translate(271.816 264.512)" fill="#ff5252"/>
      <path id="Path-75" data-name="Path" d="M5.164,0l.141.039C4.655,3.056.079,4.348.079,4.348L0,4.294C.537,4.126,4.559,2.815,5.164,0Z" transform="translate(272.67 264.744)" fill="#fff" opacity="0.2"/>
      <g id="Group-7" data-name="Group" transform="translate(270.362 272.124)" opacity="0.2">
        <path id="Path-76" data-name="Path" d="M.888,0,0,3.944H.2L1.058.108Q.976.051.888,0Z" transform="translate(0.288 1.651)" fill="#fff"/>
        <path id="Path-77" data-name="Path" d="M.2,0H0A6.832,6.832,0,0,1,1.244,5.27v.059h.181V5.27A6.829,6.829,0,0,0,.2,0Z" transform="translate(2.251 0.276)" fill="#fff"/>
      </g>
      <path id="Path-78" data-name="Path" d="M.469.858a.416.416,0,0,0,.2-.577A.433.433,0,0,0,.39,0,.46.46,0,0,1,.769.306a.419.419,0,0,1-.2.577A3.023,3.023,0,0,1,0,.789,3.314,3.314,0,0,0,.469.858Z" transform="translate(277.426 263.837)" fill="#fff" opacity="0.2"/>
      <path id="Path-79" data-name="Path" d="M1.855,0,0,3.411a26.216,26.216,0,0,1,3.23.34,3.828,3.828,0,0,0,3.032-.493L4.943,0Z" transform="translate(268.529 272.341)" fill="#263238"/>
      <path id="Path-80" data-name="Path" d="M.979,0s.979.173.781.493H0L.1,0Z" transform="translate(269.898 277.709)" fill="#ff5252"/>
      <path id="Path-81" data-name="Path" d="M.979,0s.979.173.781.493H0L.1,0Z" transform="translate(273.026 277.709)" fill="#ff5252"/>
      <path id="Path-82" data-name="Path" d="M5.475.592S3.128,3.49,4.2,4.683L0,4.6S1.171-1.967,5.475.592Z" transform="translate(267.845 264.162)" fill="#fccc63"/>
      <path id="Path-83" data-name="Path" d="M5.481.582A3.875,3.875,0,0,0,3.84,0,4.407,4.407,0,0,1,4.972.493S2.624,3.392,3.7,4.585L0,4.511v.074l4.2.084C3.133,3.48,5.481.582,5.481.582Z" transform="translate(267.839 264.172)" fill="#fff" opacity="0.2"/>
      <path id="Path-84" data-name="Path" d="M.916,0H.622L1.946,3.239A3.273,3.273,0,0,1,0,3.83a3.436,3.436,0,0,0,2.262-.592Z" transform="translate(272.557 272.341)" fill="#fff" opacity="0.2"/>
      <path id="Path-85" data-name="Path" d="M.2,0H0S.979.173.781.493h.2C1.176.168.2,0,.2,0Z" transform="translate(270.679 277.709)" fill="#fff" opacity="0.2"/>
      <path id="Path-86" data-name="Path" d="M.2,0H0S.979.173.781.493h.2C1.176.168.2,0,.2,0Z" transform="translate(273.807 277.709)" fill="#fff" opacity="0.2"/>
      <path id="Path-87" data-name="Path" d="M5.452,29.312,0,2.771l17.268-.735V29.312H29.084L40.9,0" transform="translate(405.475 168.337)" fill="none" stroke="#b3b3b3" stroke-miterlimit="10" stroke-width="1"/>
      <rect id="Rectangle-8" data-name="Rectangle" width="47.262" height="29.312" rx="14.656" transform="translate(399.112 194.874)" fill="#7399b7"/>
      <path id="Path-88" data-name="Path" d="M30.447,0H16.816C7.54.024.028,6.572,0,14.656H0a7.121,7.121,0,0,0,.045.986C.667,7.962,7.982,2,16.816,1.977H30.447C39.28,2,46.6,7.962,47.217,15.642c0-.325.045-.656.045-.986h0C47.234,6.572,39.722.024,30.447,0Z" transform="translate(399.57 194.874)" opacity="0.05"/>
      <path id="Path-89" data-name="Path" d="M136.929,61.287c0,33.848-32.443,61.287-66.985,61.287S0,95.135,0,61.287,35.4,0,69.949,0,136.929,27.439,136.929,61.287Z" transform="translate(357.511 54.262)" fill="url(#linear-gradient-2)"/>
      <path id="Path-90" data-name="Path" d="M130.526,58.4c0,32.265-30.922,58.418-63.852,58.418S0,90.663,0,58.4,33.756,0,66.68,0,130.526,26.128,130.526,58.4Z" transform="translate(360.707 57.151)" fill="#7399b7"/>
      <rect id="Rectangle-9" data-name="Rectangle" width="14.813" height="4.511" transform="translate(417.155 176.018)" fill="#7399b7"/>
      <rect id="Rectangle-10" data-name="Rectangle" width="42.568" height="12.093" transform="translate(403.988 165.769)" fill="#7399b7"/>
      <path id="Path-91" data-name="Path" d="M22.471,3.628s-50.56,50.372,0,108.327l16.7-.049S-6.924,64.028,37.053,0L28.834,1.632Z" transform="translate(381.516 57.757)" fill="#fff" opacity="0.2"/>
      <g id="Group-8" data-name="Group" transform="translate(424.774 56.692)" opacity="0.2">
        <path id="Path-92" data-name="Path" d="M2.353,0C1.567,0,.786,0,0,.049,32.031,1.257,61.5,26.922,61.5,58.418S32.031,115.579.023,116.786c.786.03,1.572.049,2.353.049,32.924,0,63.852-26.152,63.852-58.418S35.277,0,2.353,0Z" transform="translate(0.26 0.237)"/>
      </g>
      <g id="Group-9" data-name="Group" transform="translate(361.425 56.692)" opacity="0.2">
        <path id="Path-93" data-name="Path" d="M2.822,58.4C2.822,26.6,35.628.72,68.083,0H66.674C33.75,0,0,26.152,0,58.418s33.744,58.418,66.669,58.418h1.408C35.611,116.067,2.822,90.215,2.822,58.4Z" transform="translate(0.232 0.458)" fill="#fff"/>
      </g>
      <path id="Path-94" data-name="Path" d="M16.7,3.278s50.56,51.141,0,109.1L0,112.325S46.092,64.013,2.115,0l8.23,1.435Z" transform="translate(431.267 57.323)" fill="#fff" opacity="0.2"/>
    </g>
  </g>
</svg>
