<svg xmlns="http://www.w3.org/2000/svg" xmlns:xlink="http://www.w3.org/1999/xlink" width="249.494" height="199.838" viewBox="0 0 249.494 199.838"><defs><linearGradient id="a" x1="0.5" y1="1" x2="0.5" gradientUnits="objectBoundingBox"><stop offset="0" stop-color="gray" stop-opacity="0.251"/><stop offset="0.54" stop-color="gray" stop-opacity="0.122"/><stop offset="1" stop-color="gray" stop-opacity="0.102"/></linearGradient><linearGradient id="b" y1="0.625" y2="0.385" xlink:href="#a"/><linearGradient id="d" y1="1.001" xlink:href="#a"/><linearGradient id="e" x1="0.29" y1="0.495" x2="0.71" y2="0.495" xlink:href="#a"/><linearGradient id="f" x1="0.3" y1="0.495" x2="0.71" y2="0.495" xlink:href="#a"/></defs><g transform="translate(-0.241)"><path d="M20.934,15.629c-6.124.323-12.663,1.864-16.928,7.192C-3.1,31.7-.129,47.829,8.055,55.238s19.5,7.638,29.4,4.562c5.323-1.654,10.8-4.181,16.157-2.662,6.744,1.913,11.434,9.777,18.12,11.977,8.982,2.969,17.577-5.011,26.231-9.2,14.77-7.15,32.938-2.456,44.006,11.37,3.09,3.858,5.737,8.42,9.6,11.073,3.9,2.685,8.576,3.089,13.064,3.047,13.48-.129,26.752-3.735,39.9-7.321,8.349-2.262,16.854-4.627,24.236-9.868s13.6-13.939,14.565-24.233a11.52,11.52,0,0,0-.491-5.312c-1.082-2.691-3.611-3.964-5.927-5.015-6.88-3.118-14.613-6.229-21.368-2.7-1.771.927-3.413,2.294-5.3,2.766-5.4,1.341-9.808-4.737-14.012-9.047-13.013-13.338-31.977-12.12-48.584-16.892-19.34-5.538-39.874-10.068-59.981-6.543C77.548,3.018,69.77,11.328,60.1,14.54,47.361,18.772,33.9,14.96,20.934,15.629Z" transform="translate(6.309 114.426)" fill="#7399b7" opacity="0.5"/><path d="M0,0V157.053H148.579V0Z" transform="translate(34.402)" fill="url(#a)"/><rect width="146.68" height="5.024" transform="translate(35.353)" fill="#535461"/><rect width="146.68" height="148.769" transform="translate(35.353 4.882)" fill="#ededf4"/><ellipse cx="0.713" cy="0.863" rx="0.713" ry="0.863" transform="translate(37.369 1.577)" fill="#fa595f"/><ellipse cx="0.713" cy="0.863" rx="0.713" ry="0.863" transform="translate(39.503 1.577)" fill="#ffc74c"/><ellipse cx="0.713" cy="0.863" rx="0.713" ry="0.863" transform="translate(41.64 1.577)" fill="#85d459"/><rect width="112.503" height="53.405" transform="translate(52.441 13.606)" fill="#fff"/><path d="M1.6,0V1.939H0" transform="translate(163.341 65.073)" fill="none" stroke="#7399b7" stroke-miterlimit="10" stroke-width="1"/><path d="M104.615.162H0" transform="translate(55.604 66.85)" fill="none" stroke="#7399b7" stroke-miterlimit="10" stroke-width="1" stroke-dasharray="11.69"/><path d="M1.6,1.939H0V0" transform="translate(52.441 65.073)" fill="none" stroke="#7399b7" stroke-miterlimit="10" stroke-width="1"/><path d="M.134,43.813V0" transform="translate(52.308 17.451)" fill="none" stroke="#7399b7" stroke-miterlimit="10" stroke-width="1" stroke-dasharray="11.79"/><path d="M0,1.939V0H1.6" transform="translate(52.441 13.606)" fill="none" stroke="#7399b7" stroke-miterlimit="10" stroke-width="1"/><path d="M0,.162H104.613" transform="translate(57.166 13.444)" fill="none" stroke="#7399b7" stroke-miterlimit="10" stroke-width="1" stroke-dasharray="11.69"/><path d="M0,0H1.6V1.939" transform="translate(163.341 13.606)" fill="none" stroke="#7399b7" stroke-miterlimit="10" stroke-width="1"/><path d="M.134,0V43.813" transform="translate(164.81 19.354)" fill="none" stroke="#7399b7" stroke-miterlimit="10" stroke-width="1" stroke-dasharray="11.79"/><rect width="57.439" height="2.872" transform="translate(79.973 74.475)" fill="#fff"/><rect width="57.439" height="2.872" transform="translate(51.194 101.208)" fill="#fff"/><rect width="57.439" height="2.872" transform="translate(51.194 107.525)" fill="#fff"/><rect width="57.439" height="2.872" transform="translate(51.194 113.842)" fill="#fff"/><rect width="57.439" height="2.872" transform="translate(51.194 120.158)" fill="#fff"/><rect width="57.439" height="2.872" transform="translate(51.194 126.475)" fill="#fff"/><rect width="57.439" height="2.872" transform="translate(51.194 132.792)" fill="#fff"/><rect width="57.439" height="2.872" transform="translate(51.194 139.108)" fill="#fff"/><rect width="24.685" height="2.872" transform="translate(96.349 80.216)" fill="#fff"/><path d="M3.475,24.507A16.005,16.005,0,0,1,0,14.355C0,6.427,5.313,0,11.867,0S23.734,6.427,23.734,14.355,18.421,28.711,11.867,28.711A10.929,10.929,0,0,1,3.475,24.507Z" transform="translate(96.824 25.952)" fill="#7399b7" opacity="0.5"/><path d="M39.655,18.108c2.938,13-9.6,50.026-9.6,50.026S3.686,43.982.748,30.977C-1.2,22.549.727,13.5,5.806,7.27S18.335-1.427,25.329.813,37.79,9.652,39.655,18.108Z" transform="translate(0.241 96.028)" fill="#7399b7"/><path d="M39.655,18.108c2.938,13-9.6,50.026-9.6,50.026S3.686,43.982.748,30.977C-1.2,22.549.727,13.5,5.806,7.27S18.335-1.427,25.329.813,37.79,9.652,39.655,18.108Z" transform="translate(0.241 96.028)" opacity="0.1"/><path d="M0,0S16.418,29.981,15.179,67.124" transform="translate(15.224 97.124)" fill="none" stroke="#535461" stroke-miterlimit="10" stroke-width="1"/><path d="M13.167,1.21s-14.888-9.8-13,26.365c0,0,12.42-.536,16.827-12.792,1.787-4.935.237-10.707-3.606-13.431Z" transform="translate(30.919 136.693)" fill="#7399b7"/><path d="M13.245,0S11.322,18.772,0,26.3" transform="translate(31.092 137.964)" fill="none" stroke="#535461" stroke-miterlimit="10" stroke-width="1"/><g transform="translate(200.053 89.822)" opacity="0.1"><path d="M.256.313A1.315,1.315,0,0,0,.369.188Z" transform="translate(0.431 0.488)" fill="url(#b)"/></g><path d="M0,0V55.541H113.926V0Z" transform="translate(124.594 22.843)" fill="url(#a)"/><path d="M8.726,126.814H7.463l-.149-.026-.153-.035H7.115l-.1-.03-.048-.016-.088-.032-.046-.016-.091-.039H6.712l-.113-.059H6.578l-.083-.052-.034-.022-.064-.045-.032-.026-.058-.049-.027-.022-.069-.067-.072-.081-.019-.022-.045-.061-.022-.029-.038-.059L6,126l-.038-.068v-.022l-.043-.09-.029-.081v-.029l-.019-.068V125.6l-.016-.068v-.029a.308.308,0,0,1-.013-.087v-.365c-.067-.853.49-1.7,1.045-1.57,1.185.278,2.727-1.392,2.727-1.392l3.243-6.443a10.593,10.593,0,0,0-.871-4.979,77.909,77.909,0,0,1-3.437-9.612s.238-4.039-.711-5.99,0-5.015,0-5.015l2.9-6.82H10.2l.1-.278H10.2s3.558-9.612,4.981-10.727c1.015-.778,2.45-5.251,3.192-7.754-.3-.207-.463-.323-.463-.323s-.83-12.117-.83-19.78-4.274-10.727-4.274-10.727L2.965,26.536C.356,25.282,0,22.077,0,22.077l.03-.091A.868.868,0,0,1,0,21.8l.03-.09A.871.871,0,0,1,0,21.521L4.722,6.727c.014.045.03.084.042.126C5.1,4.306,6.143.326,9.348.041c4.744-.42,6.405,2.494,5.454,2.786S9.821,5.056,9.821,5.056L8.234,8.19c.1-.042.163-.071.163-.071a.555.555,0,0,0-.227.193l-.109.22A3.412,3.412,0,0,0,8.4,8.4l-.048.026-.037.023-.03.023L8.248,8.5l-.029.029-.032.04-.03.039-.031.045L8.1,8.7l-.03.051-.029.059a3.421,3.421,0,0,0,.334-.131c-1.214.628-1.726,9.654-1.838,11.979l6.143,3.332s6.164,0,8.774,1.809c2.291,1.589,3.392.281,3.627-.061q-.24.375-.425.72l.107-.086.1-.091h.015l.035-.039a13.583,13.583,0,0,0,1.047-3.929A7.927,7.927,0,0,1,26.031,17a1.25,1.25,0,0,1-.318.19,7.064,7.064,0,0,0,.535-1.939,8.02,8.02,0,0,1,.147-2.262,1.688,1.688,0,0,1,.094-.2l.026-.077c.27-.708.919-1.1,1.32-1.713.269-.414.406-.921.672-1.347a2.211,2.211,0,0,1,2.815-.969,2.862,2.862,0,0,0,1.173.52,2.215,2.215,0,0,0,.644-.136,4.337,4.337,0,0,1,3.785.863A8.123,8.123,0,0,1,39.4,13.489a8.3,8.3,0,0,1,.553,2.262,24.467,24.467,0,0,1-.032,2.478,11.777,11.777,0,0,1-.337,4.019c-.034.087-.072.175-.112.258v.02a6.7,6.7,0,0,1-2.31,2.688l-1.175.943-.133.107a5.206,5.206,0,0,1,1.012-.026c1.785.152,5.342-1.939,5.342-1.939L45.9,20.226l-1.805-9.014.069.061-.069-.339.069.061-.069-.339c.035.032.067.061.1.091l-1.87-3.713S38.3,5.081,37.343,4.8s.71-3.2,5.454-2.786c3.487.3,4.412,4.979,4.655,7.431.206-.274.326-.475.326-.475l3.32,9.613a8.076,8.076,0,0,1,.535,2.872c0,.1,0,.187.008.278a3.383,3.383,0,0,1-1,2.84l-9.85,10.568c-3.8,1.671-4.273,10.446-4.273,10.446a10.7,10.7,0,0,0-.535,3.877,98.764,98.764,0,0,0,1.25,12.414l-.035.067.035.211-.035.068.035.21q-.271.558-.588,1.079c1.068,2.666,3.047,6.927,3.908,7.835,1.185,1.254,3.558,10.585,3.558,10.585l-.077-.023.077.3h-.051a15.656,15.656,0,0,1,1.288,4.815,17.314,17.314,0,0,0,.572,3.315A7.886,7.886,0,0,1,46,94.226a20.136,20.136,0,0,0-.463,3.109,22.957,22.957,0,0,1-1.21,5.883,83.887,83.887,0,0,0-2.6,8.278c-.04.465-.133,1.153-.24,1.86l.062.02,2.51,7.179s.714,1.939,2.137,1.939a.918.918,0,0,1,.738.4,1.364,1.364,0,0,1,.243.932,1.453,1.453,0,0,1-.085.646l-.03.074-.032.071-.034.068-.041.064-.042.062-.046.058-.048.055-.016.016-.048.052-.019.016-.05.048-.022.02-.054.045-.023.02-.057.041-.026.02-.059.039-.032.02-.061.035-.035.02-.064.032-.038.02-.064.032-.042.019-.068.03-.045.019-.069.026-.049.016-.072.022-.053.016-.075.02h-.059l-.077.019H43.731l-.216-.022c-4.629-.553-8.114-4.924-8.114-4.924v-.256l-.016-.022s.3-5.609,1.99-6.872a20.891,20.891,0,0,0,.267-3.156c0-3.91-.949-7.809,1.661-14.216a10.882,10.882,0,0,0-.831-4.178q-.837-2.014-1.851-3.91l-.117-.016.186.3s-3.082-.278-3.319-2.785a3.573,3.573,0,0,0-.118-.614c-.713-2.521-4.162-6.1-5.692-6.352-1.661-.278-4.981,4.455-6.285,7.8-.075.191-.152.372-.229.536-1.277,2.727-2.856,2.11-2.856,2.11.056-.081.107-.161.158-.239a.875.875,0,0,1-.158-.039,6.361,6.361,0,0,0,.406-.646c-1.188,1.587-2.46,3.034-3.012,3.877a4.459,4.459,0,0,0-.593,3.622c0,2.51,2.727,9.89,2.016,13.928a15.2,15.2,0,0,0,.548,6.2h.1c2.016.927,2.251,4.249,2.235,5.919.005.41-.008.82-.04,1.228a42.189,42.189,0,0,1-10.553,3.9l-.251.039H8.975l-.166.02ZM8.4,8.668l-.031.014Z" transform="translate(155.558 72.905)" fill="url(#d)"/><rect width="112.503" height="53.405" transform="translate(125.187 23.687)" fill="#fff"/><g transform="translate(137.019 27.141)" opacity="0.6"><path d="M89.241,28.149V49.806H0V16.96H2.8V8.591H13.456V16.96h2.9V42.052h3.737V33.913h4.487v8.139h3.737v-13.9H28.5V20.914h3.552v7.234h8.221V39h4.578V35.609H47.66V39h4.578V6.895h5.98V1.809h1.028V6.895h1.68V16.96h2.991V8.591H66.44V0h5.235V8.591H74.2V16.96h3.085V28.149h4.2V20.914h3.552v7.234Z" transform="translate(0.155 0.145)" fill="#7399b7" opacity="0.3"/><rect width="3.924" height="2.714" transform="translate(1.931 19.703)" fill="#fff" opacity="0.4"/><rect width="3.924" height="2.714" transform="translate(14.639 22.414) rotate(180)" fill="#fff" opacity="0.4"/><rect width="3.924" height="2.714" transform="translate(1.931 25.015)" fill="#fff" opacity="0.4"/><rect width="3.924" height="2.714" transform="translate(14.639 27.729) rotate(180)" fill="#fff" opacity="0.4"/><rect width="3.924" height="2.714" transform="translate(1.931 30.33)" fill="#fff" opacity="0.4"/><rect width="3.924" height="2.714" transform="translate(14.639 33.04) rotate(180)" fill="#fff" opacity="0.4"/><rect width="3.924" height="2.714" transform="translate(1.931 35.641)" fill="#fff" opacity="0.4"/><rect width="3.924" height="2.714" transform="translate(14.639 38.355) rotate(180)" fill="#fff" opacity="0.4"/><rect width="3.924" height="2.714" transform="translate(1.931 40.956)" fill="#fff" opacity="0.4"/><rect width="3.924" height="2.714" transform="translate(14.639 43.67) rotate(180)" fill="#fff" opacity="0.4"/><rect width="3.924" height="2.714" transform="translate(1.931 46.268)" fill="#fff" opacity="0.4"/><rect width="3.924" height="2.714" transform="translate(14.639 48.979) rotate(180)" fill="#fff" opacity="0.4"/><rect width="9.159" height="1.357" transform="translate(17.909 44.911)" fill="#fff" opacity="0.4"/><rect width="9.159" height="1.357" transform="translate(17.909 46.947)" fill="#fff" opacity="0.4"/><rect width="9.156" height="0.969" transform="translate(17.911 48.979)" fill="#fff" opacity="0.4"/><rect width="9.159" height="1.357" transform="translate(41.832 45.59)" fill="#fff" opacity="0.4"/><rect width="9.159" height="1.357" transform="translate(41.832 47.625)" fill="#fff" opacity="0.4"/><rect width="9.156" height="0.291" transform="translate(41.832 49.661)" fill="#fff" opacity="0.4"/><rect width="2.524" height="3.958" transform="translate(30.433 30.895)" fill="#fff" opacity="0.4"/><rect width="2.524" height="3.958" transform="translate(38.467 34.853) rotate(180)" fill="#fff" opacity="0.4"/><rect width="2.524" height="3.958" transform="translate(30.433 37.225)" fill="#fff" opacity="0.4"/><rect width="2.524" height="3.958" transform="translate(38.467 41.179) rotate(180)" fill="#fff" opacity="0.4"/><rect width="2.524" height="3.958" transform="translate(30.433 43.554)" fill="#fff" opacity="0.4"/><rect width="2.524" height="3.958" transform="translate(38.467 47.512) rotate(180)" fill="#fff" opacity="0.4"/><rect width="2.524" height="0.1" transform="translate(30.43 49.884)" fill="#fff" opacity="0.4"/><rect width="2.524" height="0.1" transform="translate(35.946 49.884)" fill="#fff" opacity="0.4"/><rect width="3.365" height="5.199" transform="translate(52.393 9.641)" fill="#fff" opacity="0.4"/><rect width="3.365" height="5.199" transform="translate(52.393 17.102)" fill="#fff" opacity="0.4"/><rect width="3.365" height="5.199" transform="translate(52.393 24.562)" fill="#fff" opacity="0.4"/><rect width="3.365" height="5.199" transform="translate(52.393 32.026)" fill="#fff" opacity="0.4"/><rect width="3.365" height="5.199" transform="translate(52.393 39.486)" fill="#fff" opacity="0.4"/><rect width="3.363" height="3.005" transform="translate(52.393 46.947)" fill="#fff" opacity="0.4"/><rect width="12.521" height="4.407" transform="translate(62.999 20.268)" fill="#fff" opacity="0.4"/><rect width="12.521" height="4.407" transform="translate(63.045 29.764)" fill="#fff" opacity="0.4"/><rect width="12.521" height="4.407" transform="translate(63.093 39.26)" fill="#fff" opacity="0.4"/><path d="M10.585,1.2h1.936V0H0V1.2H10.585Z" transform="translate(63.138 48.756)" fill="#fff" opacity="0.4"/><rect width="1.683" height="4.297" transform="translate(2.959 11.111)" fill="#fff" opacity="0.4"/><rect width="4.204" height="6.556" transform="translate(85.192 30.895)" fill="#fff" opacity="0.4"/><rect width="4.204" height="6.556" transform="translate(85.192 40.391)" fill="#fff" opacity="0.4"/><rect width="4.207" height="0.1" transform="translate(85.192 49.884)" fill="#fff" opacity="0.4"/><path d="M6.595,1.09H5.951a.434.434,0,0,0,.42-.259.645.645,0,0,0,0-.57A.434.434,0,0,0,5.951,0H.742a.434.434,0,0,0-.42.259.645.645,0,0,0,0,.57.434.434,0,0,0,.42.259h.644a.434.434,0,0,0-.42.259.645.645,0,0,0,0,.57.434.434,0,0,0,.42.259h-.9a.434.434,0,0,0-.42.259.645.645,0,0,0,0,.57.434.434,0,0,0,.42.259H5.694a.515.515,0,0,0,.417-.544.515.515,0,0,0-.417-.544h.9a.515.515,0,0,0,.417-.544.515.515,0,0,0-.417-.544Z" transform="translate(18.293 4.444)" fill="#252223" opacity="0.1"/><path d="M6.525,1.089H5.881A.515.515,0,0,0,6.3.544.515.515,0,0,0,5.881,0H.673A.515.515,0,0,0,.256.544a.515.515,0,0,0,.417.544h.644a.434.434,0,0,0-.42.259.645.645,0,0,0,0,.57.434.434,0,0,0,.42.259h-.9A.515.515,0,0,0,0,2.722a.515.515,0,0,0,.417.544H5.625a.515.515,0,0,0,.417-.544.515.515,0,0,0-.417-.544h.9a.434.434,0,0,0,.42-.259.645.645,0,0,0,0-.57.434.434,0,0,0-.42-.259Z" transform="translate(41.351 18.126)" fill="#252223" opacity="0.1"/><path d="M6.589,1.09H5.945A.515.515,0,0,0,6.362.546.515.515,0,0,0,5.945,0H.737a.434.434,0,0,0-.42.259.645.645,0,0,0,0,.57.434.434,0,0,0,.42.259h.644a.434.434,0,0,0-.42.259.645.645,0,0,0,0,.57.434.434,0,0,0,.42.259H.486a.434.434,0,0,0-.42.259.645.645,0,0,0,0,.57.434.434,0,0,0,.42.259H5.694a.515.515,0,0,0,.417-.544.515.515,0,0,0-.417-.544h.9a.515.515,0,0,0,.417-.544.515.515,0,0,0-.417-.544Z" transform="translate(80.443 0.263)" fill="#252223" opacity="0.1"/><path d="M.19.111l-.112.1A.491.491,0,0,0,.19.111Z" transform="translate(37.118 40.299)" fill="url(#e)"/><path d="M.19.111l-.112.1A.491.491,0,0,0,.19.111Z" transform="translate(37.204 40.405)" fill="url(#f)"/><path d="M.19.111l-.112.1A.491.491,0,0,0,.19.111Z" transform="translate(37.204 40.299)" fill="url(#f)"/><path d="M.486.7C.56.694.626.6.633.489S.588.294.514.3.374.4.367.511.412.706.486.7Z" transform="translate(31.995 38.082) rotate(-25.74)" fill="#f2f2f2"/></g><path d="M3.809,0,.4,8.239S-.5,11.26.4,13.183s.681,5.906.681,5.906a77.665,77.665,0,0,0,3.293,9.477C5.855,31.58,4.947,36,4.947,36l5.9.824s-2.27-5.357-1.6-9.341S7.316,16.223,7.316,13.745a4.5,4.5,0,0,1,.569-3.57c1.138-1.784,5.449-6.317,5.342-8.927Z" transform="translate(163.744 154.304)" fill="#f7bbc3"/><path d="M8.52,0a19.223,19.223,0,0,1,2.433,7.205,17.642,17.642,0,0,0,.534,3.267,8,8,0,0,1,.085,3.813,20.307,20.307,0,0,0-.443,3.066,23.228,23.228,0,0,1-1.159,5.816c-1.039,3.092-2.4,7.312-2.484,8.162C7.372,32.7,6.806,36,6.806,36L2.265,38.058a28.013,28.013,0,0,0,1.362-7.829c0-3.845-.908-7.69,1.6-14.01a10.893,10.893,0,0,0-.8-4.12C3.512,9.628,0,3.173,0,3.173Z" transform="translate(189.129 152.381)" fill="#f7bbc3"/><path d="M23.878,22.873c-.374.491,1.552,3.619,1.552,3.619s-2.951-.275-3.178-2.746a3.637,3.637,0,0,0-.115-.6c-.684-2.485-3.985-6.01-5.449-6.262-1.6-.275-4.768,4.394-6.018,7.69-.072.191-.144.365-.219.53C9.231,27.787,7.719,27.18,7.719,27.18a3.343,3.343,0,0,0,.716-2.908C7.441,21.309,0,21.4,0,21.4s3.405-9.477,4.768-10.575S8.288,1.48,8.288,1.48,24.525-.717,24.637.243,27.93,8.76,29.065,9.994,32.471,20.44,32.471,20.44c-3.86-1.373-8.117,1.99-8.571,2.4Z" transform="translate(166.421 134.407)" opacity="0.1"/><path d="M23.873,22.876c-.374.491,1.552,3.619,1.552,3.619s-2.951-.275-3.178-2.746a3.638,3.638,0,0,0-.115-.6c-.684-2.485-3.985-6.01-5.449-6.262-1.6-.275-4.768,4.394-6.018,7.69-.072.191-.144.365-.219.53C9.225,27.79,7.719,27.18,7.719,27.18a3.343,3.343,0,0,0,.716-2.908C7.441,21.309,0,21.4,0,21.4s3.405-9.477,4.768-10.575S8.288,1.48,8.288,1.48,24.525-.717,24.637.243,27.93,8.76,29.065,9.994s3.405,10.439,3.405,10.439c-3.86-1.373-8.117,1.99-8.571,2.4Z" transform="translate(166.426 134.129)" fill="#8499f0"/><path d="M6.74,0,3.617,6.388S2.14,8.036,1.005,7.761s-2.27,3.845,2.385,3.021a39.627,39.627,0,0,0,10.1-3.845S14,1.373,11.4.152Z" transform="translate(162.235 187.748)" opacity="0.1"/><path d="M5.849.237,8.291,7.174s.681,1.939,2.043,1.939S12.15,12.547,7.722,12,0,7.19,0,7.19.342.6,2.385.185A7.234,7.234,0,0,1,5.849.237Z" transform="translate(190.601 185.304)" opacity="0.1"/><path d="M6.74,0,3.617,6.388S2.14,8.036,1.005,7.761s-2.27,3.845,2.385,3.021a39.627,39.627,0,0,0,10.1-3.845S14,1.373,11.4.152Z" transform="translate(162.235 188.023)" fill="#b77983"/><path d="M5.849.237,8.291,7.174s.681,1.939,2.043,1.939S12.15,12.547,7.722,12,0,7.19,0,7.19.342.6,2.385.185A7.234,7.234,0,0,1,5.849.237Z" transform="translate(190.601 185.588)" fill="#b77983"/><g transform="translate(174.145 134.087)" opacity="0.1"><path d="M1.162.246C1.277,1.215,4.455,8.762,5.59,10c1.042,1.134,3.042,8.989,3.363,10.262a6,6,0,0,1,.612.174s-2.27-9.2-3.405-10.439S1.846,1.2,1.731.242C1.709.052,1.044-.016,0,0,.71.026,1.143.094,1.162.246Z" transform="translate(15.182 0.055)"/><path d="M8.293.012C6.691-.263,3.526,4.406,2.276,7.7c-.072.191-.144.365-.219.53-.705,1.551-1.5,2-2.057,2.11.366.081,1.6.149,2.626-2.11.075-.165.147-.339.219-.53C3.99,4.677,6.757.5,8.435.044Z" transform="translate(0.101 16.909)"/><path d="M.617,2.752l.019-.023A11.932,11.932,0,0,1,6.953.006C3.627-.133.457,2.377.067,2.729l-.019.023C-.28,3.185,1.167,5.66,1.523,6.241a4.355,4.355,0,0,0,.644.126S.243,3.24.617,2.752Z" transform="translate(15.537 20.166)"/></g><path d="M0,8.832S0,.454,4.541.04s6.143,2.472,5.222,2.746-4.768,2.2-4.768,2.2L2.5,10.066Z" transform="translate(161.082 73.779)" fill="#f7bbc3"/><path d="M10.012,8.832S10.012.454,5.472.04-.672,2.512.25,2.787s4.768,2.2,4.768,2.2l2.5,5.082Z" transform="translate(192.178 75.701)" fill="#f7bbc3"/><path d="M3.03,0s.342,5.493-2.5,8.653S7.127,15.78,7.127,15.78l4.2-6.042a5.565,5.565,0,0,1-1.6-6.73Z" transform="translate(178.594 93.186)" fill="#f7bbc3"/><path d="M24.068,18.691s-1.023,1.939-3.52.139-8.4-1.8-8.4-1.8l-5.9-3.3S6.7,1.922,8.061,1.373c0,0-2.724,1.373-3.52-1.373L0,14.559s.342,3.16,2.839,4.394l9.423,7s4.087,3.021,4.087,10.575.8,19.5.8,19.5,13.16,9.625,18.5-1.635c0,0-2.158-13.321-.681-16.62,0,0,.454-8.653,4.087-10.3l9.415-10.449s1.816-1.373.454-5.357L45.748,2.2s-1.931,3.3-3.52,1.648l1.816,9.341-3.632,4.12s-3.405,2.061-5.11,1.939a8.418,8.418,0,0,0-3.632.824s-.8,5.493-4.428,4.943C27.246,25.008,20.321,24.595,24.068,18.691Z" transform="translate(156.656 80.95)" opacity="0.1"/><path d="M24.068,18.682s-1.023,1.939-3.52.139-8.4-1.79-8.4-1.79l-5.9-3.3S6.7,1.922,8.061,1.373c0,0-2.724,1.373-3.52-1.373L0,14.559s.342,3.16,2.839,4.394l9.42,7.018s4.087,3.021,4.087,10.575.8,19.5.8,19.5,13.162,9.6,18.5-1.645c0,0-2.158-13.321-.681-16.62,0,0,.454-8.653,4.087-10.3l9.415-10.452s1.816-1.373.454-5.357L45.748,2.2s-1.931,3.3-3.52,1.648l1.816,9.341-3.632,4.12s-3.405,2.061-5.11,1.939a8.418,8.418,0,0,0-3.632.824s-.8,5.493-4.428,4.943C27.246,25,20.321,24.585,24.068,18.682Z" transform="translate(156.656 80.41)" opacity="0.1"/><path d="M.156.124.111.2Z" transform="translate(180.562 99.252)" fill="#d39999"/><path d="M48.464,17.034,39.041,27.473c-3.632,1.648-4.087,10.3-4.087,10.3-1.477,3.3.681,16.62.681,16.62-5.342,11.263-18.507,1.648-18.507,1.648s-.027-.394-.069-1.089c-.037-.607-.088-1.447-.144-2.446-.075-1.292-.16-2.853-.24-4.546-.179-3.7-.342-8.01-.342-11.422,0-7.554-4.087-10.575-4.087-10.575L5.195,20.7,2.839,18.953C.342,17.716,0,14.559,0,14.559L4.541,0c.743,2.565,3.17,1.535,3.486,1.389-1.335.73-1.782,12.346-1.782,12.346l5.9,3.3s5.9,0,8.4,1.787c2.137,1.519,3.181.355,3.448-.029C20.409,24.6,27.249,25,27.249,25c3.632.549,4.428-4.943,4.428-4.943a8.088,8.088,0,0,1,3.632-.824c1.7.145,5.11-1.939,5.11-1.939l3.632-4.12L42.236,3.829c1.6,1.648,3.52-1.648,3.52-1.648l3.178,9.477C50.288,15.658,48.464,17.034,48.464,17.034Z" transform="translate(156.664 80.685)" fill="#d39999"/><path d="M.11,0A15.946,15.946,0,0,1,0,2.585C1.021,5.66,3.741,7.378,6.41,6.633a5.747,5.747,0,0,1,.4-3.606Z" transform="translate(181.514 93.735)" opacity="0.1"/><ellipse cx="5.564" cy="6.73" rx="5.564" ry="6.73" transform="translate(181.122 86.523)" fill="#f7bbc3"/><path d="M5.315,7.019a4.427,4.427,0,0,0,.171,2.016,3.643,3.643,0,0,0,.534.827l1.165,1.451a3.8,3.8,0,0,1,.831,1.431c.337,1.357-.657,2.7-.625,4.123a1.4,1.4,0,0,0,1.72.769,2.838,2.838,0,0,0,.718-.481l1.124-.931a6.583,6.583,0,0,0,2.212-2.649,11.968,11.968,0,0,0,.323-3.964c.05-.814.06-1.631.029-2.446a8.385,8.385,0,0,0-.534-2.242,8.007,8.007,0,0,0-2.377-3.5A4.061,4.061,0,0,0,6.985.573,2.067,2.067,0,0,1,6.37.705c-.4,0-.751-.323-1.122-.514a2.084,2.084,0,0,0-2.695.94c-.246.42-.387.921-.644,1.328-.382.607-1,.992-1.263,1.687A8.18,8.18,0,0,0,.5,6.385,7.122,7.122,0,0,1,0,8.308c.63-.265.938-1.1,1.335-1.738a3.38,3.38,0,0,1,2.6-1.6c.347-.019.991-.052,1.266.268C5.574,5.646,5.353,6.528,5.315,7.019Z" transform="translate(181.279 82.406)" opacity="0.1"/><path d="M5.288,7.032a4.427,4.427,0,0,0,.171,2.016,3.643,3.643,0,0,0,.534.827l1.165,1.451a3.8,3.8,0,0,1,.831,1.431c.337,1.357-.657,2.7-.625,4.123a1.4,1.4,0,0,0,1.72.769,2.832,2.832,0,0,0,.745-.494l1.124-.931a6.583,6.583,0,0,0,2.212-2.649,11.968,11.968,0,0,0,.323-3.964c.05-.814.06-1.631.029-2.446a8.385,8.385,0,0,0-.534-2.242,8.007,8.007,0,0,0-2.377-3.5A4.061,4.061,0,0,0,6.985.573,2.067,2.067,0,0,1,6.37.705c-.4,0-.751-.323-1.122-.514a2.084,2.084,0,0,0-2.695.94c-.246.42-.387.921-.644,1.328-.382.607-1,.992-1.263,1.687A8.18,8.18,0,0,0,.5,6.385,7.122,7.122,0,0,1,0,8.308c.63-.265.938-1.1,1.335-1.738a3.38,3.38,0,0,1,2.6-1.6c.347-.019.991-.052,1.266.268C5.556,5.658,5.334,6.531,5.288,7.032Z" transform="translate(181.41 82.119)" fill="#74585e"/><g transform="translate(160.791 80.452)" opacity="0.1"><path d="M.11.2C.142.152.158.123.158.123Z" transform="translate(19.778 18.788)"/><path d="M1.012.459A1.326,1.326,0,0,1,0,0L.11.556a1.344,1.344,0,0,0,.9-.1Z" transform="translate(38.098 4.081)"/><path d="M.728.7c-2.845,5.283,3.56,5.667,3.56,5.667a2.946,2.946,0,0,0,1.458-.126,3.143,3.143,0,0,1-.889,0S-2.007,5.832,1.631,0a1.852,1.852,0,0,1-.9.7Z" transform="translate(18.257 19.002)"/><path d="M1.538.2A4.007,4.007,0,0,0,2.9,0a3.068,3.068,0,0,1-.8.061A6.213,6.213,0,0,0,0,.32,5.544,5.544,0,0,1,1.538.2Z" transform="translate(29.068 19.399)"/><path d="M19.431,9.477,16.253,0a6.915,6.915,0,0,1-.411.6l3.024,9c1.362,3.984-.454,5.357-.454,5.357L8.988,25.4C5.355,27.047,4.9,35.7,4.9,35.7c-1.477,3.3.681,16.62.681,16.62A8.847,8.847,0,0,1,0,57.464c2.369-.488,4.591-2,6.143-5.283,0,0-2.158-13.321-.681-16.62,0,0,.454-8.653,4.087-10.3l9.423-10.426S20.8,13.457,19.431,9.477Z" transform="translate(25.366 2.433)"/><path d="M2.382,0a3.667,3.667,0,0,1-.718.249C.419,1.57,0,12.5,0,12.5l5.9,3.3s5.9,0,8.4,1.787a2.7,2.7,0,0,0,2.671.617,3.247,3.247,0,0,1-2.091-.753c-2.5-1.787-8.4-1.787-8.4-1.787L.564,12.365S1.018.549,2.382,0Z" transform="translate(1.544 1.609)"/><path d="M2.8,1.677A2.083,2.083,0,0,1,.267,0L0,.856A2.232,2.232,0,0,0,2.8,1.677Z" transform="translate(0.142 0.236)"/></g><path d="M11.485,27.254c-.179-3.7-.342-8.01-.342-11.422,0-7.554-4.087-10.575-4.087-10.575L0,0C4.113,1.292,9.586,3.519,10.077,6.139c.8,4.258,2.27,4.669,1.7,11.955q-.359,4.566-.3,9.16Z" transform="translate(161.859 101.389)" opacity="0.1"/><path d="M1.816,0S2.839,3.845,0,6.317" transform="translate(172.596 139.128)" opacity="0.1"/><path d="M0,0S.342,2.885,1.7,3.984" transform="translate(190.318 139.128)" opacity="0.1"/><path d="M13.493.824a39.627,39.627,0,0,1-10.1,3.845C1.027,5.086.157,4.233.02,3.328c-.155,1.057.534,2.394,3.368,1.89a39.627,39.627,0,0,0,10.1-3.845C13.527.917,13.54.458,13.53,0,13.511.5,13.493.824,13.493.824Z" transform="translate(162.237 193.583)" opacity="0.1"/><path d="M7.837,10.136C3.408,9.586.115,5.328.115,5.328A21.264,21.264,0,0,1,1.09,0,20.152,20.152,0,0,0,0,5.6S3.293,9.861,7.722,10.41c2.262.281,3.251-.478,3.494-1.292C10.844,9.819,9.84,10.384,7.837,10.136Z" transform="translate(190.598 187.157)" opacity="0.1"/><rect width="28.483" height="22.969" transform="translate(135.216 107.237)" fill="#fff"/><path d="M1.971,65.6s-5.005-20.559.938-35.687A38.661,38.661,0,0,0,5.08,9.561,63.415,63.415,0,0,0,2.695,0" transform="translate(230.668 100.029)" fill="none" stroke="#535461" stroke-miterlimit="10" stroke-width="2"/><path d="M7.543,4.562c0,2.52-3.771,9.826-3.771,9.826S0,7.082,0,4.562,1.688,0,3.771,0,7.543,2.043,7.543,4.562Z" transform="translate(229.53 85.887)" fill="#7399b7"/><path d="M7.58,6.984C6.448,9.1,0,12.752,0,12.752S.118,4.141,1.25,2.025A3.393,3.393,0,0,1,6.434.733,5.164,5.164,0,0,1,7.58,6.984Z" transform="translate(235.727 97.423)" fill="#7399b7"/><path d="M8.95,8.681C7.081,9.816,0,9.034,0,9.034S3.694,1.67,5.556.536A3.22,3.22,0,0,1,9.373.728a4.915,4.915,0,0,1,1.72,4.127A4.657,4.657,0,0,1,8.95,8.681Z" transform="translate(234.084 119.571)" fill="#7399b7"/><path d="M8.771,8.282C7.1,9.782,0,10.457,0,10.457S2.612,2.444,4.287.948A3.247,3.247,0,0,1,8.07.367a4.568,4.568,0,0,1,2.268,3.709A5,5,0,0,1,8.771,8.282Z" transform="translate(230.697 137.96)" fill="#7399b7"/><path d="M1.116,7.8C2.609,9.55,9.57,11.369,9.57,11.369S7.866,3.007,6.365,1.25a3.327,3.327,0,0,0-5.3.133,5.267,5.267,0,0,0,.041,6.41Z" transform="translate(226.691 102.867)" fill="#7399b7"/><path d="M2,8.589c1.87,1.134,8.95.352,8.95.352S7.255,1.578,5.393.444C3.543-.622,1.327.3.4,2.509A5.069,5.069,0,0,0,2,8.589Z" transform="translate(221.861 123.175)" fill="#7399b7"/><path d="M1.47,8.177c1.675,1.5,8.771,2.174,8.771,2.174S7.629,2.338,5.955.842A3.365,3.365,0,0,0,.739,1.85,5.226,5.226,0,0,0,1.47,8.177Z" transform="translate(220.878 144.731)" fill="#7399b7"/><path d="M1.239,41.25s-3.146-12.924.59-22.436A24.307,24.307,0,0,0,3.194,6.01,39.87,39.87,0,0,0,1.7,0" transform="translate(213.014 113.021)" fill="none" stroke="#535461" stroke-miterlimit="10" stroke-width="2"/><path d="M4.744,2.773c0,1.583-2.372,6.178-2.372,6.178S0,4.356,0,2.773A2.636,2.636,0,0,1,2.37,0a2.636,2.636,0,0,1,2.37,2.773Z" transform="translate(212.289 104.235)" fill="#7399b7"/><path d="M4.765,4.5C4.054,5.828,0,8.126,0,8.126S.075,2.711.785,1.383A2.3,2.3,0,0,1,2.911,0,2.394,2.394,0,0,1,4.937,1.589,3.387,3.387,0,0,1,4.765,4.5Z" transform="translate(216.189 111.28)" fill="#7399b7"/><path d="M5.628,5.4C4.458,6.112,0,5.618,0,5.618S2.324.988,3.491.277a2.2,2.2,0,0,1,3.133,1.3A3.189,3.189,0,0,1,5.628,5.4Z" transform="translate(215.152 125.374)" fill="#7399b7"/><path d="M5.515,5.125C4.463,6.068,0,6.491,0,6.491S1.643,1.454,2.695.514a2.117,2.117,0,0,1,3.261.649A3.291,3.291,0,0,1,5.515,5.125Z" transform="translate(213.023 136.956)" fill="#7399b7"/><path d="M.776,4.979c.94,1.105,5.315,2.262,5.315,2.262S5.023,1.984,4.08.879A2.11,2.11,0,0,0,1.751.1,2.687,2.687,0,0,0,.066,2.2a3.263,3.263,0,0,0,.71,2.795Z" transform="translate(210.434 114.733)" fill="#7399b7"/><path d="M1.251,5.4c1.17.714,5.628.22,5.628.22S4.555.988,3.388.277a2.2,2.2,0,0,0-3.133,1.3A3.189,3.189,0,0,0,1.251,5.4Z" transform="translate(207.475 127.581)" fill="#7399b7"/><path d="M1.017,5.225c1.052.943,5.515,1.367,5.515,1.367S4.89,1.554,3.838.614A2.045,2.045,0,0,0,1.447.227,2.872,2.872,0,0,0,.013,2.572a3.133,3.133,0,0,0,1,2.652Z" transform="translate(206.76 141.047)" fill="#7399b7"/></g></svg>