<svg xmlns="http://www.w3.org/2000/svg" xmlns:xlink="http://www.w3.org/1999/xlink" width="249.88" height="199.988" viewBox="0 0 249.88 199.988"><defs><linearGradient id="a" x1="0.505" y1="1.007" x2="0.505" gradientUnits="objectBoundingBox"><stop offset="0" stop-color="gray" stop-opacity="0.251"/><stop offset="0.54" stop-color="gray" stop-opacity="0.122"/><stop offset="1" stop-color="gray" stop-opacity="0.102"/></linearGradient></defs><g transform="translate(75.927)"><rect width="3.044" height="24.193" rx="1.522" transform="translate(100.179 45.276)" fill="#3f3d56"/><rect width="101.821" height="199.587" rx="38.99" fill="#3f3d56"/><path d="M81.17,0H69.49V1.355A6.308,6.308,0,0,1,67.539,5.9a6.784,6.784,0,0,1-4.71,1.879H25.684A6.784,6.784,0,0,1,20.974,5.9a6.308,6.308,0,0,1-1.951-4.542V0H8.087A7.947,7.947,0,0,0,0,7.8V181.4a7.947,7.947,0,0,0,8.087,7.8H81.17a7.947,7.947,0,0,0,8.087-7.8V7.813a7.661,7.661,0,0,0-2.364-5.524A8.24,8.24,0,0,0,81.17,0Z" transform="translate(6.479 5.199)" fill="#fff"/><rect width="14.218" height="2.783" rx="1.392" transform="translate(41.089 5.96)" fill="#e6e8ec"/><ellipse cx="1.639" cy="1.581" rx="1.639" ry="1.581" transform="translate(57.458 5.772)" fill="#e6e8ec"/><ellipse cx="19.262" cy="18.578" rx="19.262" ry="18.578" transform="translate(32.271 83.666)" fill="#fff"/><path d="M0,24.829C0,11.116,11.527,0,25.745,0a26.23,26.23,0,0,1,18.2,7.273,24.389,24.389,0,0,1,7.54,17.557c0,13.713-11.527,24.829-25.745,24.829S0,38.542,0,24.829Z" transform="translate(25.379 74.819)" fill="#7399b7"/></g><g transform="translate(8.332 26.205)"><rect width="1.535" height="7.16" rx="0.767" transform="translate(69.882 13.143)" fill="#3f3d56"/><rect width="1.729" height="12.461" rx="0.865" transform="translate(69.826 26.253)" fill="#3f3d56"/><rect width="1.646" height="12.568" rx="0.823" transform="translate(69.854 43.074)" fill="#3f3d56"/><path d="M0,.1A.292.292,0,0,0,.337.137,1.233,1.233,0,0,1,0,.1Z" transform="translate(49.459 76.213)" fill="url(#a)"/><path d="M17.627,0l-.332,1.745L17.038,3.08l-.466,2.442L12.051,8.575s-.408-.336-1.08-.867A78.7,78.7,0,0,0,2.365,1.633,9.8,9.8,0,0,0,0,.582Z" transform="translate(44.557 81.109)" fill="#feb9b9"/><path d="M17.97,4.8s5.271.873,5.58-1.3S20.837.16,18.276.014.344.887.344.887-2.367,4.375,7.425,4.958Z" transform="translate(40.897 77.604)" fill="#3f3d56"/><rect width="27.575" height="31.536" transform="translate(42.82 10.763)" fill="#2f2e41"/><rect width="27.575" height="31.536" transform="translate(42.82 10.907)" opacity="0.1"/><path d="M10.5,2.621a4.433,4.433,0,0,0-1.68,1.147c-2.779,2.654-6.759,8.881-6.759,8.881C-3.026,6.8,2.605,2.183,5.006.6c.584-.384.976-.6.976-.6Z" transform="translate(0 62.128)" fill="#feb9b9"/><path d="M14.615,0s1.357,9.155,6.027,11.335-6.027,6.254-6.027,6.254L0,12.354S8.288,9.737,6.63,2.034Z" transform="translate(47.266 20.717)" fill="#feb9b9"/><path d="M17.641,0l-.331,1.739-.269,1.34-.466,2.442-4.521,3.05s-.408-.334-1.08-.864a78.352,78.352,0,0,0-8.61-6.076A9.74,9.74,0,0,0,0,.581Z" transform="translate(28.569 75.796)" fill="#feb9b9"/><path d="M17.448,5.649s4.731.032,5.015-2.145S19.885.16,17.448.014.2.954.2.954-1.9,5.066,7.416,5.649Z" transform="translate(24.852 72.292)" fill="#2f2e41"/><path d="M36.478,39.827c-.207-.1-.414-.2-.618-.3l-.556-.676-7.29-8.917v.155c-.049,1.489-.574,13.289-4.669,14.379-4.369,1.162-9.64,1.453-12.043-6.394S4.509,13.08,0,12.062l6.707-5.3s4.44,5.009,6.25,9.8c-.068-.3-3.134-14.117-.618-16.562h22s3.4,9.331,5.725,13.953c1.813,3.589,4.533,12.074,6.285,17.816C48.085,37.439,41.993,42.445,36.478,39.827Z" transform="translate(38.99 72.318)" fill="#3f3d56"/><path d="M24.539,20.347c-3.4,1.939-18.308,1.15-23.159.834L.058,21.089c-.142,0,.022-.077.022-.077l.136-1.319,3.616-8.863L23.193,0A15.7,15.7,0,0,0,22.7,4.884,109.572,109.572,0,0,0,24.539,20.347Z" transform="translate(50.302 54.576)" opacity="0.1"/><path d="M24.7,20.338c-3.4,1.939-18.308,1.15-23.159.834L.219,21.083,0,21.065l.241-.06,1.192-.3,2.56-9.882L23.354,0a15.708,15.708,0,0,0-.491,4.884A109.528,109.528,0,0,0,24.7,20.338Z" transform="translate(50.141 54.147)" fill="#efefef"/><path d="M22.644,4.878c-3.937.876-12.6,3.445-15.931,9.649-2.22,4.131-4.088,5.9-5.391,6.644L0,21.083a.713.713,0,0,0,.022-.077l1.192-.3,2.56-9.882L23.134,0A15.78,15.78,0,0,0,22.644,4.878Z" transform="translate(50.348 54.147)" opacity="0.1"/><path d="M.976,0,5.5,2.615a4.433,4.433,0,0,0-1.68,1.147C3.44,2.7,1.076,1.221,0,.59.583.211.976,0,.976,0Z" transform="translate(5.006 62.135)" opacity="0.1"/><path d="M.309.14A.276.276,0,0,1,0,.1,1.108,1.108,0,0,0,.309.14Z" transform="translate(49.233 75.26)" opacity="0.1"/><path d="M54.859,22.226a9.178,9.178,0,0,1-6.932-2.472S35.884,23.1,31.805,30.655,0,53.036,0,53.036s4.823,2.615,4.369,3.922L22.6,46.785s6.484-4.5,8.285-5.521S42.644,34,44.753,51s0,14.968,0,14.968,3.014,1.019,7.383-7.121S70.064,48.819,70.064,48.819l.753-8.571s2.69-5.683.618-8.041a4.988,4.988,0,0,1-1.207-2.46c-.343-2.177,0-5.8,4.8-8.818C82.409,16.276,85.272,12.5,85.272,12.5s.151-2.764-4.369-4.071S58,0,58,0l-.618,2.472,14.5,9.873S64.654,18,58.917,17.866C58.917,17.866,59.982,22.08,54.859,22.226Z" transform="translate(4.913 9.245)" fill="#7399b7"/><path d="M9,3.55A27.529,27.529,0,0,1,8.167,0L.182,2.035A8.156,8.156,0,0,1,0,6.478,8.767,8.767,0,0,0,9,3.55Z" transform="translate(53.563 21.151)" opacity="0.1"/><ellipse cx="8.587" cy="8.283" rx="8.587" ry="8.283" transform="translate(47.344 10.909)" fill="#feb9b9"/><path d="M0,0S4.971,9.447,3.465,12.351" transform="translate(65.272 85.895)" opacity="0.1"/><path d="M23.371.062c2.384.262,4.647,1.248,6.994,1.787a3.594,3.594,0,0,0,1.81.065c.911-.271,1.652-1.191,2.6-1.164a2.919,2.919,0,0,1,1.575.765,19.161,19.161,0,0,1,2.161,1.858c1.618,1.695,2.622,3.976,4.1,5.819s3.581,4.005,5.677,3.16A12,12,0,0,1,37.353,21.4c-2.016.134-4.082-.271-6.034.3a5.387,5.387,0,0,1-1.523.357c-1.124,0-2.029-.995-2.73-1.963-1.643-2.275-2.943-4.857-4.792-6.933a3.947,3.947,0,0,0-2.2-1.465,4.177,4.177,0,0,0-2.427.658A11.405,11.405,0,0,0,14.1,14.736a4.625,4.625,0,0,0-1.2,4.17,9.47,9.47,0,0,1,.729,2.335c.019,1.322-1.192,2.287-1.43,3.574a12.927,12.927,0,0,0-.059,1.626A6.618,6.618,0,0,1,9.6,30.756a3.105,3.105,0,0,0-1.167,1.558c-.1.456,0,.935-.062,1.4a2.608,2.608,0,0,1-2.412,1.873,7.194,7.194,0,0,1-3.619-.414A3.977,3.977,0,0,0,4.362,30.9c-.466-2.359-2.924-4.053-2.713-6.454a7.284,7.284,0,0,1,.679-2.123A18.919,18.919,0,0,0,3.489,18.3a6.546,6.546,0,0,0-.071-3.207,9.9,9.9,0,0,0-1.5-2.439A13.671,13.671,0,0,1,.179,9.221,2.337,2.337,0,0,1,.013,8.083,2.336,2.336,0,0,1,.769,6.907C2.113,5.545,3.548,4.131,5.349,3.741a10.683,10.683,0,0,1,2.6-.1,31.808,31.808,0,0,0,4.517-.185c1.235-.14,3.322-.122,4.369-.893.976-.721,1.525-1.626,2.726-2.085a8.3,8.3,0,0,1,3.81-.42Z" transform="translate(37.127 0)" fill="#2f2e41"/></g><ellipse cx="12.457" cy="2.032" rx="12.457" ry="2.032" transform="translate(215.938 195.028)" fill="#7399b7"/><path d="M11.521,5.538a3.492,3.492,0,0,0,1.187-1.73,1.525,1.525,0,0,0-.831-1.76,2.383,2.383,0,0,0-2.194.744,2.971,2.971,0,0,1-2.135.992A3.066,3.066,0,0,0,8.557.853a1.214,1.214,0,0,0-.282-.6C7.854-.181,7.085,0,6.58.351c-1.611,1.091-2.06,3.2-2.069,5.1A9.249,9.249,0,0,1,4.48,3.359,2.124,2.124,0,0,0,3.662,1.5a2.534,2.534,0,0,0-1.239-.281A2.648,2.648,0,0,0,.4,1.772a1.873,1.873,0,0,0,.081,2.39,7.85,7.85,0,0,0,2.1,1.619A4.579,4.579,0,0,1,4.07,7.16a1.22,1.22,0,0,1,.111.248H8.707A12.745,12.745,0,0,0,11.52,5.539Z" transform="translate(222.026 188.2)" fill="#7399b7"/><ellipse cx="8.221" cy="1.341" rx="8.221" ry="1.341" transform="translate(50.808 197.306)" fill="#efefef"/><path d="M7.6,3.654a2.305,2.305,0,0,0,.783-1.142,1.006,1.006,0,0,0-.548-1.162,1.573,1.573,0,0,0-1.447.491A1.962,1.962,0,0,1,4.983,2.5,2.023,2.023,0,0,0,5.647.563.8.8,0,0,0,5.461.168C5.184-.12,4.676,0,4.343.231A3.95,3.95,0,0,0,2.977,3.6a6.117,6.117,0,0,1-.02-1.38A1.4,1.4,0,0,0,2.417.989,1.672,1.672,0,0,0,1.6.8,1.747,1.747,0,0,0,.262,1.17,1.236,1.236,0,0,0,.315,2.748,5.157,5.157,0,0,0,1.7,3.816a3.022,3.022,0,0,1,.988.908.807.807,0,0,1,.074.164H5.747A8.411,8.411,0,0,0,7.6,3.653Z" transform="translate(54.825 192.8)" fill="#efefef"/><ellipse cx="8.221" cy="1.341" rx="8.221" ry="1.341" transform="translate(4.315 197.306)" fill="#efefef"/><path d="M7.6,3.654a2.305,2.305,0,0,0,.783-1.142,1.006,1.006,0,0,0-.548-1.162,1.573,1.573,0,0,0-1.447.491A1.962,1.962,0,0,1,4.983,2.5,2.023,2.023,0,0,0,5.647.563.8.8,0,0,0,5.461.168C5.184-.12,4.676,0,4.343.231A3.95,3.95,0,0,0,2.977,3.6a6.117,6.117,0,0,1-.02-1.38A1.4,1.4,0,0,0,2.417.989,1.672,1.672,0,0,0,1.6.8,1.747,1.747,0,0,0,.262,1.17,1.236,1.236,0,0,0,.315,2.748,5.157,5.157,0,0,0,1.7,3.816a3.022,3.022,0,0,1,.988.908.807.807,0,0,1,.074.164H5.747A8.411,8.411,0,0,0,7.6,3.653Z" transform="translate(8.332 192.8)" fill="#efefef"/><rect width="249.88" height="0.486" transform="translate(0 199.222)" fill="#2f2e41"/><path d="M23.264.033S-2.822-1.485.252,16.144a4.221,4.221,0,0,0,2.317,4.53s.047-1.306,2.677-.861a12.682,12.682,0,0,0,2.835.131,6.023,6.023,0,0,0,3.463-1.366h0S18.877,15.657,21.727,4.1c0,0,2.11-2.522,2.026-3.17l-4.4,1.814s1.506,3.063.31,5.607c0,0-.143-5.5-.988-5.378C18.5,3,16.386,4.032,16.386,4.032s2.587,5.334.635,9.212c0,0,.74-6.574-1.444-8.827l-3.1,1.745s3.024,5.51.973,10.007c0,0,.526-6.9-1.627-9.583L9.019,8.7s2.841,5.429,1.109,9.159c0,0-.226-8.026-1.717-8.632A16.909,16.909,0,0,0,5.58,12.172s1.945,3.944.737,6.024c0,0-.74-5.348-1.348-5.378,0,0-2.447,3.544-2.7,5.976a12.541,12.541,0,0,1,2.11-6.311A7.5,7.5,0,0,0,.629,14.352s.381-2.5,4.353-2.725c0,0,2.023-2.689,2.562-2.85,0,0-3.947-.32-6.342.705,0,0,2.107-2.363,7.067-1.288L11.042,6.01s-5.2-.684-7.4.072c0,0,2.537-2.092,8.151-.568l3.018-1.739a28.659,28.659,0,0,0-7.073-.6s2.788-1.449,7.959.123l2.169-.935s-3.247-.615-4.2-.714-1-.35-1-.35a11.646,11.646,0,0,1,6.1.654S23.341.311,23.264.033Z" transform="translate(214.419 13.458)" fill="#7399b7"/><path d="M10.509.015S-1.264-.67.112,7.3A1.913,1.913,0,0,0,1.159,9.343s.022-.6,1.211-.391a5.621,5.621,0,0,0,1.279.06A2.7,2.7,0,0,0,5.214,8.39h0s3.315-1.321,4.6-6.544c0,0,.951-1.138.914-1.431l-1.989.819a3.337,3.337,0,0,1,.146,2.534s-.065-2.483-.446-2.426c-.078,0-1.035.481-1.035.481S8.578,4.233,7.7,5.984c0,0,.334-2.97-.654-3.989l-1.4.8s1.366,2.489.44,4.521c0,0,.239-3.116-.734-4.33L4.08,3.944s1.283,2.453.5,4.139c0,0-.105-3.628-.778-3.9a7.615,7.615,0,0,0-1.28,1.333s.88,1.793.335,2.722c0,0-.335-2.417-.62-2.43A7.918,7.918,0,0,0,1.019,8.495a5.691,5.691,0,0,1,.954-2.85A3.377,3.377,0,0,0,.278,6.49S.452,5.357,2.246,5.259A8.268,8.268,0,0,1,3.4,3.968a7.511,7.511,0,0,0-2.866.32S1.49,3.222,3.73,3.706L4.969,2.72a11.034,11.034,0,0,0-3.347.031s1.146-.944,3.684-.257l1.363-.786a12.9,12.9,0,0,0-3.2-.267,5.078,5.078,0,0,1,3.6.053l.976-.421S6.577.795,6.145.75,5.693.592,5.693.592a5.251,5.251,0,0,1,2.757.3A12.99,12.99,0,0,0,10.509.015Z" transform="translate(191.433 4.143)" fill="#3f3d56"/><path d="M10.509.015S-1.264-.67.112,7.3A1.913,1.913,0,0,0,1.159,9.343s.022-.6,1.211-.391a5.621,5.621,0,0,0,1.279.06A2.7,2.7,0,0,0,5.214,8.39h0s3.315-1.321,4.6-6.544c0,0,.951-1.138.914-1.431l-1.989.819a3.337,3.337,0,0,1,.146,2.534s-.065-2.483-.446-2.426c-.078,0-1.035.481-1.035.481S8.578,4.233,7.7,5.984c0,0,.334-2.97-.654-3.989l-1.4.8s1.366,2.489.44,4.521c0,0,.239-3.116-.734-4.33L4.08,3.944s1.283,2.453.5,4.139c0,0-.105-3.628-.778-3.9a7.615,7.615,0,0,0-1.28,1.333s.88,1.793.335,2.722c0,0-.335-2.417-.62-2.43A7.918,7.918,0,0,0,1.019,8.495a5.691,5.691,0,0,1,.954-2.85A3.377,3.377,0,0,0,.278,6.49S.452,5.357,2.246,5.259A8.268,8.268,0,0,1,3.4,3.968a7.511,7.511,0,0,0-2.866.32S1.49,3.222,3.73,3.706L4.969,2.72a11.034,11.034,0,0,0-3.347.031s1.146-.944,3.684-.257l1.363-.786a12.9,12.9,0,0,0-3.2-.267,5.078,5.078,0,0,1,3.6.053l.976-.421S6.577.795,6.145.75,5.693.592,5.693.592a5.251,5.251,0,0,1,2.757.3A12.99,12.99,0,0,0,10.509.015Z" transform="translate(9.888 125.755)" fill="#3f3d56"/></svg>